<?xml version="1.0" standalone="no"?>
<!DOCTYPE svg PUBLIC "-//W3C//DTD SVG 20010904//EN"
 "http://www.w3.org/TR/2001/REC-SVG-20010904/DTD/svg10.dtd">
<svg version="1.0" xmlns="http://www.w3.org/2000/svg"
 width="513.000000pt" height="513.000000pt" viewBox="0 0 513.000000 513.000000"
 preserveAspectRatio="xMidYMid meet">
<metadata>
Created by potrace 1.14, written by Peter Selinger 2001-2017
</metadata>
<g transform="translate(0.000000,513.000000) scale(0.100000,-0.100000)"
fill="#000000" stroke="none">
<path d="M865 4423 c-49 -25 -94 -74 -111 -120 -36 -92 10 -206 101 -252 l50
-26 875 0 875 0 47 -28 c52 -30 92 -88 102 -147 9 -52 -17 -130 -56 -167 -72
-68 15 -63 -1165 -63 -714 0 -1081 -4 -1106 -11 -82 -22 -147 -110 -147 -199
0 -89 65 -177 147 -199 25 -7 254 -11 648 -11 682 0 656 2 721 -72 80 -91 57
-242 -46 -302 -33 -20 -55 -21 -395 -26 -352 -5 -361 -6 -408 -28 -94 -47
-148 -152 -127 -248 14 -64 50 -117 102 -151 l41 -28 471 -5 471 -5 42 -24
c64 -37 96 -90 101 -165 4 -78 -24 -138 -86 -181 l-44 -30 -911 -5 c-1004 -6
-938 -1 -998 -67 -41 -43 -59 -87 -59 -143 0 -56 18 -100 59 -143 61 -66 -33
-61 1247 -67 l1160 -5 43 -28 c47 -31 91 -109 91 -163 0 -75 -49 -156 -114
-185 -39 -18 -79 -19 -723 -19 -462 0 -699 -4 -735 -11 -43 -9 -62 -20 -99
-58 -96 -99 -83 -237 30 -316 l43 -30 1891 0 1892 0 78 37 c130 62 219 172
247 305 7 32 10 552 8 1558 l-3 1510 -37 77 c-60 126 -149 201 -287 242 -49
14 -237 16 -1975 16 -1729 -1 -1924 -2 -1951 -17z m1691 -1220 c9 -32 74 -258
144 -503 117 -410 128 -442 137 -410 6 19 70 245 143 503 l132 467 144 0 c79
0 144 -2 144 -4 0 -11 280 -980 285 -984 6 -6 -1 -31 130 438 64 228 125 445
136 483 l20 67 144 0 c80 0 145 -3 145 -7 0 -5 -98 -297 -217 -651 l-218 -642
-150 2 -150 3 -135 462 c-74 254 -138 464 -141 467 -3 4 -68 -205 -145 -464
l-138 -470 -147 0 -147 0 -61 178 c-33 97 -133 390 -220 650 l-160 472 154 0
154 0 17 -57z"/>
</g>
</svg>
