<svg width="182" height="236" viewBox="0 0 182 236" fill="none" xmlns="http://www.w3.org/2000/svg">
<path d="M130.612 90.042C130.612 90.5737 130.178 91.0072 129.646 91.0072H71.6179C71.0553 91.0279 70.6062 91.4718 70.5804 92.0344V104.325C70.6062 104.81 70.9934 105.197 71.4786 105.207H71.5147C71.5199 105.207 71.525 105.202 71.525 105.202V105.207H129.646C130.178 105.207 130.612 105.641 130.612 106.172V123.062C130.612 123.593 130.178 124.027 129.646 124.027H69.7339C69.6978 124.032 69.6668 124.048 69.6307 124.048H52.7105C52.184 124.048 51.7607 123.619 51.7607 123.098V73.1321C51.7607 72.6108 52.184 72.1875 52.7105 72.1875H69.6307C69.6358 72.1875 69.641 72.1875 69.6513 72.1875H129.646C130.178 72.1875 130.612 72.6211 130.612 73.1579V90.042ZM51.7659 40.2053C51.7659 39.6324 52.2304 39.173 52.7982 39.173H129.476C129.951 39.173 130.23 39.7098 129.951 40.0969L117.95 56.8933C117.454 57.5849 116.659 57.9927 115.813 57.9927H52.7311C52.1994 57.9927 51.7659 57.5591 51.7659 57.0326V40.2053ZM90.8764 5.0332C48.834 5.0332 14.751 39.1162 14.751 81.1586C14.751 123.196 48.834 157.279 90.8764 157.279C132.919 157.279 166.997 123.196 166.997 81.1586C166.997 39.1162 132.919 5.0332 90.8764 5.0332Z" fill="#222222"/>
<path d="M5.18066 167.062H23.8428V171.439H10.1944V178.601H23.1266V182.819H10.1944V190.777H24.5591V195.234H5.18066V167.062Z" fill="#222222"/>
<path d="M44.0311 172.951C43.5005 172.261 42.7445 171.691 41.763 171.24C40.808 170.762 39.8397 170.524 38.8582 170.524C38.2746 170.524 37.691 170.603 37.1074 170.762C36.5238 170.895 35.9932 171.12 35.5157 171.439C35.0382 171.731 34.6403 172.128 34.322 172.633C34.0302 173.11 33.8843 173.694 33.8843 174.383C33.8843 175.02 34.0169 175.564 34.2822 176.015C34.5474 176.466 34.9056 176.85 35.3565 177.169C35.834 177.487 36.4044 177.766 37.0676 178.004C37.7308 178.243 38.4603 178.482 39.2561 178.721C40.158 179.012 41.0865 179.344 42.0415 179.715C43.023 180.087 43.9117 180.578 44.7075 181.188C45.5299 181.798 46.1931 182.567 46.6971 183.496C47.2276 184.424 47.4929 185.578 47.4929 186.957C47.4929 188.469 47.2144 189.796 46.6573 190.937C46.1002 192.051 45.3574 192.979 44.429 193.722C43.5005 194.465 42.4129 195.022 41.1661 195.393C39.9193 195.765 38.6062 195.95 37.2267 195.95C35.3963 195.95 33.6057 195.619 31.8549 194.955C30.1041 194.266 28.6716 193.258 27.5574 191.931L31.1386 188.589C31.8284 189.544 32.7436 190.3 33.8843 190.857C35.0515 191.414 36.1922 191.693 37.3063 191.693C37.8899 191.693 38.4868 191.626 39.0969 191.494C39.7071 191.334 40.2509 191.082 40.7284 190.738C41.2324 190.393 41.6303 189.968 41.9221 189.464C42.2405 188.934 42.3996 188.284 42.3996 187.514C42.3996 186.772 42.2272 186.162 41.8823 185.684C41.5375 185.18 41.0732 184.756 40.4896 184.411C39.906 184.039 39.2163 183.721 38.4205 183.456C37.6246 183.19 36.789 182.912 35.9136 182.62C35.0647 182.355 34.2159 182.037 33.367 181.665C32.5181 181.294 31.7488 180.803 31.0591 180.193C30.3959 179.583 29.8521 178.84 29.4276 177.965C29.0032 177.063 28.791 175.948 28.791 174.622C28.791 173.19 29.0828 171.956 29.6664 170.921C30.2765 169.887 31.0591 169.038 32.0141 168.375C32.9956 167.685 34.0965 167.181 35.3167 166.863C36.5635 166.518 37.8236 166.345 39.0969 166.345C40.5294 166.345 41.9752 166.597 43.4342 167.101C44.9197 167.606 46.2063 168.362 47.294 169.37L44.0311 172.951Z" fill="#222222"/>
<path d="M52.7143 167.062H61.9061C63.5243 167.062 64.9833 167.208 66.2832 167.499C67.583 167.791 68.6972 168.269 69.6256 168.932C70.5541 169.595 71.2704 170.444 71.7744 171.479C72.2784 172.513 72.5304 173.76 72.5304 175.219C72.5304 176.784 72.2386 178.097 71.655 179.158C71.0714 180.219 70.2756 181.082 69.2675 181.745C68.286 182.381 67.132 182.846 65.8057 183.137C64.4793 183.429 63.0733 183.575 61.5878 183.575H57.728V195.234H52.7143V167.062ZM61.2297 179.357C62.052 179.357 62.8346 179.304 63.5773 179.198C64.3201 179.065 64.9833 178.853 65.5669 178.561C66.1505 178.243 66.6148 177.819 66.9596 177.288C67.3045 176.758 67.4769 176.068 67.4769 175.219C67.4769 174.397 67.3045 173.733 66.9596 173.229C66.6148 172.699 66.1505 172.288 65.5669 171.996C65.0098 171.704 64.3599 171.518 63.6171 171.439C62.9009 171.333 62.1581 171.28 61.3888 171.28H57.728V179.357H61.2297Z" fill="#222222"/>
<path d="M75.8471 181.068C75.8471 178.813 76.2185 176.784 76.9612 174.98C77.7305 173.15 78.7784 171.598 80.1048 170.325C81.4577 169.051 83.0493 168.07 84.8797 167.38C86.7367 166.69 88.7528 166.345 90.928 166.345C93.1298 166.345 95.1592 166.69 97.0161 167.38C98.873 168.07 100.478 169.051 101.831 170.325C103.184 171.598 104.232 173.15 104.974 174.98C105.744 176.784 106.128 178.813 106.128 181.068C106.128 183.27 105.744 185.286 104.974 187.117C104.232 188.92 103.184 190.486 101.831 191.812C100.478 193.112 98.873 194.133 97.0161 194.876C95.1592 195.592 93.1298 195.95 90.928 195.95C88.7528 195.95 86.7367 195.592 84.8797 194.876C83.0493 194.133 81.4577 193.112 80.1048 191.812C78.7784 190.486 77.7305 188.92 76.9612 187.117C76.2185 185.286 75.8471 183.27 75.8471 181.068ZM81.2985 181.068C81.2985 182.58 81.524 183.973 81.975 185.246C82.4525 186.493 83.1156 187.581 83.9645 188.509C84.8399 189.438 85.8613 190.167 87.0285 190.698C88.2222 191.202 89.5353 191.454 90.9678 191.454C92.4003 191.454 93.7134 191.202 94.9072 190.698C96.1009 190.167 97.1222 189.438 97.9711 188.509C98.8465 187.581 99.5097 186.493 99.9607 185.246C100.438 183.973 100.677 182.58 100.677 181.068C100.677 179.609 100.438 178.256 99.9607 177.01C99.5097 175.763 98.8598 174.675 98.0109 173.747C97.162 172.818 96.1407 172.089 94.947 171.558C93.7532 171.028 92.4268 170.762 90.9678 170.762C89.5088 170.762 88.1824 171.028 86.9887 171.558C85.8215 172.089 84.8134 172.818 83.9645 173.747C83.1156 174.675 82.4525 175.763 81.975 177.01C81.524 178.256 81.2985 179.609 81.2985 181.068Z" fill="#222222"/>
<path d="M111.167 167.062H120.956C122.282 167.062 123.569 167.208 124.816 167.499C126.062 167.765 127.163 168.216 128.118 168.852C129.1 169.489 129.882 170.325 130.466 171.359C131.05 172.394 131.341 173.654 131.341 175.139C131.341 177.182 130.758 178.853 129.591 180.153C128.45 181.426 126.885 182.289 124.895 182.74L132.416 195.234H126.368L119.842 183.297H116.181V195.234H111.167V167.062ZM120.279 179.198C120.996 179.198 121.712 179.145 122.428 179.039C123.144 178.933 123.781 178.734 124.338 178.442C124.922 178.15 125.399 177.739 125.771 177.209C126.142 176.651 126.328 175.948 126.328 175.1C126.328 174.33 126.155 173.707 125.81 173.229C125.466 172.725 125.028 172.327 124.497 172.036C123.967 171.744 123.357 171.545 122.667 171.439C122.004 171.333 121.354 171.28 120.717 171.28H116.181V179.198H120.279Z" fill="#222222"/>
<path d="M141.615 171.439H132.98V167.062H155.264V171.439H146.629V195.234H141.615V171.439Z" fill="#222222"/>
<path d="M173.104 172.951C172.574 172.261 171.818 171.691 170.836 171.24C169.881 170.762 168.913 170.524 167.932 170.524C167.348 170.524 166.764 170.603 166.181 170.762C165.597 170.895 165.067 171.12 164.589 171.439C164.112 171.731 163.714 172.128 163.395 172.633C163.104 173.11 162.958 173.694 162.958 174.383C162.958 175.02 163.09 175.564 163.356 176.015C163.621 176.466 163.979 176.85 164.43 177.169C164.907 177.487 165.478 177.766 166.141 178.004C166.804 178.243 167.534 178.482 168.329 178.721C169.231 179.012 170.16 179.344 171.115 179.715C172.096 180.087 172.985 180.578 173.781 181.188C174.603 181.798 175.266 182.567 175.77 183.496C176.301 184.424 176.566 185.578 176.566 186.957C176.566 188.469 176.288 189.796 175.731 190.937C175.174 192.051 174.431 192.979 173.502 193.722C172.574 194.465 171.486 195.022 170.239 195.393C168.993 195.765 167.68 195.95 166.3 195.95C164.47 195.95 162.679 195.619 160.928 194.955C159.177 194.266 157.745 193.258 156.631 191.931L160.212 188.589C160.902 189.544 161.817 190.3 162.958 190.857C164.125 191.414 165.266 191.693 166.38 191.693C166.963 191.693 167.56 191.626 168.17 191.494C168.78 191.334 169.324 191.082 169.802 190.738C170.306 190.393 170.704 189.968 170.995 189.464C171.314 188.934 171.473 188.284 171.473 187.514C171.473 186.772 171.301 186.162 170.956 185.684C170.611 185.18 170.147 184.756 169.563 184.411C168.979 184.039 168.29 183.721 167.494 183.456C166.698 183.19 165.862 182.912 164.987 182.62C164.138 182.355 163.289 182.037 162.44 181.665C161.591 181.294 160.822 180.803 160.132 180.193C159.469 179.583 158.925 178.84 158.501 177.965C158.077 177.063 157.864 175.948 157.864 174.622C157.864 173.19 158.156 171.956 158.74 170.921C159.35 169.887 160.132 169.038 161.087 168.375C162.069 167.685 163.17 167.181 164.39 166.863C165.637 166.518 166.897 166.345 168.17 166.345C169.603 166.345 171.049 166.597 172.508 167.101C173.993 167.606 175.28 168.362 176.367 169.37L173.104 172.951Z" fill="#222222"/>
<path d="M35.7363 208.684C34.9935 207.675 34.0252 206.946 32.8315 206.495C31.6378 206.017 30.4705 205.779 29.3298 205.779C27.8708 205.779 26.5445 206.044 25.3507 206.575C24.157 207.105 23.1224 207.835 22.247 208.763C21.3981 209.692 20.7349 210.779 20.2574 212.026C19.8064 213.273 19.581 214.626 19.581 216.085C19.581 217.623 19.8064 219.029 20.2574 220.303C20.7084 221.576 21.345 222.677 22.1674 223.605C23.0163 224.507 24.0243 225.21 25.1915 225.714C26.3588 226.218 27.6719 226.47 29.1309 226.47C30.643 226.47 31.9826 226.178 33.1498 225.595C34.317 224.985 35.2588 224.189 35.975 223.207L39.9939 226.033C38.7471 227.598 37.2218 228.818 35.4179 229.693C33.6141 230.542 31.5051 230.967 29.0911 230.967C26.8893 230.967 24.8599 230.609 23.003 229.892C21.1726 229.15 19.5942 228.128 18.2678 226.828C16.9415 225.502 15.9069 223.937 15.1641 222.133C14.4213 220.303 14.05 218.287 14.05 216.085C14.05 213.83 14.4346 211.801 15.2039 209.997C15.9997 208.166 17.0741 206.614 18.427 205.341C19.8064 204.068 21.4246 203.086 23.2816 202.396C25.1385 201.707 27.1546 201.362 29.3298 201.362C30.2318 201.362 31.1735 201.455 32.155 201.64C33.1366 201.8 34.0783 202.065 34.9802 202.436C35.8822 202.781 36.731 203.219 37.5269 203.749C38.3227 204.28 38.9992 204.917 39.5562 205.659L35.7363 208.684Z" fill="#222222"/>
<path d="M43.3081 202.078H61.9703V206.455H48.3218V213.618H61.2541V217.836H48.3218V225.794H62.6865V230.25H43.3081V202.078Z" fill="#222222"/>
<path d="M67.7938 202.078H74.439L87.5304 223.168H87.61V202.078H92.6237V230.25H86.257L72.8871 208.485H72.8076V230.25H67.7938V202.078Z" fill="#222222"/>
<path d="M104.731 206.455H96.0964V202.078H118.38V206.455H109.745V230.25H104.731V206.455Z" fill="#222222"/>
<path d="M121.856 202.078H131.644C132.971 202.078 134.257 202.224 135.504 202.516C136.751 202.781 137.852 203.232 138.807 203.869C139.788 204.505 140.571 205.341 141.155 206.376C141.738 207.41 142.03 208.67 142.03 210.156C142.03 212.198 141.446 213.87 140.279 215.17C139.138 216.443 137.573 217.305 135.584 217.756L143.104 230.25H137.056L130.53 218.313H126.869V230.25H121.856V202.078ZM130.968 214.215C131.684 214.215 132.4 214.161 133.117 214.055C133.833 213.949 134.47 213.75 135.027 213.458C135.61 213.167 136.088 212.756 136.459 212.225C136.831 211.668 137.016 210.965 137.016 210.116C137.016 209.347 136.844 208.723 136.499 208.246C136.154 207.742 135.716 207.344 135.186 207.052C134.655 206.76 134.045 206.561 133.355 206.455C132.692 206.349 132.042 206.296 131.406 206.296H126.869V214.215H130.968Z" fill="#222222"/>
<path d="M147.08 202.078H165.742V206.455H152.093V213.618H165.026V217.836H152.093V225.794H166.458V230.25H147.08V202.078Z" fill="#222222"/>
</svg>
