<svg width="212" height="250" viewBox="0 0 212 250" fill="none" xmlns="http://www.w3.org/2000/svg">
<path d="M65.7462 139.123C64.5237 142.681 63.6901 146.917 63.9745 149.595C68.371 142.829 70.3396 139.792 71.2583 137.33C72.177 134.867 74.2769 128.435 73.3363 121.716C76.2562 122.929 78.0569 124.043 81.3639 126.283C73.9253 105.92 66.9711 96.635 45.6664 77.5789C41.6854 74.0182 39.4543 66.1022 40.4824 62.2528C41.5105 58.4033 43.9579 56.5361 48.8162 51.4694C45.1888 54.0206 40.4517 56.5811 38.5138 61.2725C35.8993 69.3269 38.542 76.5191 45.6664 84.9671C54.8945 95.2097 58.0708 99.4308 63.2089 106.558C66.221 122.934 67.3379 132.168 65.7462 139.123Z" fill="#222222"/>
<path fill-rule="evenodd" clip-rule="evenodd" d="M64.8931 71.7689C57.9395 65.7197 53.399 62.8547 43.654 59.0967C44.4647 57.4749 45.408 56.5741 47.0935 54.9647L47.0936 54.9646C47.4564 54.6182 47.8536 54.2389 48.2912 53.8126C53.2109 49.0199 53.2542 47.9881 53.6019 39.7006L53.602 39.6993C53.6237 39.1809 53.6467 38.634 53.6721 38.056C55.1011 33.3636 55.7183 31.7825 56.625 30.0702C58.8389 38.1161 60.4885 42.5275 65.3962 49.9153C65.7175 50.388 66.0243 50.8415 66.32 51.2786C69.0327 55.2888 70.8091 57.9149 74.2769 61.2725C75.0227 66.6878 73.1973 69.0545 64.8931 71.7689ZM55.0938 62.7549C58.5564 59.806 60.7121 58.6583 65.0025 57.6621C63.7563 61.7042 63.1945 63.9907 62.4652 68.1107C59.7916 66.257 58.1839 65.0916 55.0938 62.7549ZM52.3378 55.6297C50.1555 56.0737 48.9207 56.613 46.6726 58.738C48.4634 59.4349 49.4299 59.8423 51.0254 60.6269C51.5137 58.9258 51.8029 57.8124 52.3378 55.6297Z" fill="#222222"/>
<path d="M105.709 61.129C107.834 61.3318 109.02 61.4832 111.09 62.0854C114.415 63.0526 119.883 67.3455 125.723 72.3905C125.277 72.7385 125.009 72.9225 124.301 73.1078C123.622 73.0998 123.244 73.0992 122.573 73.1078C108.531 65.7197 116.252 68.3976 106.409 63.4961C106.055 62.5775 105.904 62.0585 105.709 61.129Z" fill="#222222"/>
<path fill-rule="evenodd" clip-rule="evenodd" d="M55.9688 14.3136C47.1319 21.4866 48.2037 30.9309 51.7691 43.4118C51.9132 41.5164 51.9182 40.5905 51.6597 38.5821C50.2603 27.7074 52.469 23.4233 57.2156 18.4022C62.7058 22.1082 66.399 22.3814 71.8052 20.9562C72.4834 20.8307 72.6987 20.956 73.3621 21.3422L73.3636 21.3431C77.7985 23.9254 81.157 27.641 84.7324 32.0069C89.5883 37.9365 93.5911 43.4358 98.972 53.6691C99.825 55.1037 100.853 55.9406 101.816 56.371C101.77 56.0813 101.701 55.8542 101.632 55.6252L101.632 55.6251C101.536 55.306 101.438 54.9832 101.4 54.4821C107.109 53.8843 114.065 55.7971 124.433 62.444C130.101 66.0783 134.669 72.6535 138.257 79.8743C139.853 82.5299 140.904 83.8046 143.222 85.4692C139.518 86.1089 136.966 85.7322 134.669 84.2259C137.272 89.749 137.017 92.5044 137.002 95.8518C136.991 98.5855 136.978 101.533 138.257 106.079C133.654 102.218 130.943 100.1 125.964 97.6392C130.335 105.633 130.436 110.266 130.558 115.868C130.691 121.928 130.848 129.12 136.463 142.924C127.393 139.163 125.851 137.175 124.156 134.989C122.802 133.242 121.35 131.369 115.88 128.363C120.618 141.222 121.42 148.399 116.799 160.809C114.948 156.729 114.26 157.083 111.877 154.688C106.715 149.5 108.049 151.819 105.272 146.224C103.959 149.954 103.697 152.775 105.862 157.94C97.9002 153.253 94.8379 150.599 90.5507 143.976C91.2293 146.971 92.0818 149.547 93.3942 151.819C96.7236 157.581 101.072 162.188 109.537 168.962C109.274 165.376 110.193 163.272 111.462 161.168C113.233 164.156 113.496 163.535 115.465 165.95C117.433 168.364 118.571 168.747 119.096 172.668C121.808 170.062 123.12 167.791 124.739 164.276C126.118 161.281 127.495 158.466 128.589 153.923C129.792 154.234 130.557 154.89 133.206 156.254C137.797 158.619 140.881 159.805 146 161.67C144.504 159.156 143.857 157.728 142.85 155.166C146.442 156.184 148.231 157.053 151.556 158.872C154.464 160.463 157.44 161.909 161.049 165.017C161.027 164.037 160.961 163.511 160.786 162.53C166.605 163.917 169.519 165.264 173.189 168.197C174.965 162.929 175.992 159.791 173.276 151.245C172.417 148.543 168.793 140.199 166.741 128.985C165.591 122.7 163.546 116.605 161.687 111.063C160.746 108.256 159.852 105.591 159.146 103.115C160.808 103.816 161.943 104.207 163.63 104.693C160.713 101.491 159.508 99.21 157.877 94.5549C152.008 76.0958 147.002 69.8558 136.747 62.3006C137.496 62.1483 139.617 61.1344 139.832 60.8899C135.562 60.199 131.607 58.9517 129.179 57.6621C117.521 51.4694 113.54 49.9631 102.012 49.4849L101.763 49.1108C92.4644 35.1518 89.3439 30.4673 79.0671 21.3431C76.7005 19.1961 75.8744 17.9384 74.255 15.4135C69.9459 8.69483 65.8775 5.56265 60.9778 6.97332C57.653 7.93056 56.9312 9.8186 55.9688 14.3136ZM63.5589 10.8706C63.4038 10.3597 63.3256 9.98025 63.2089 9.07738C68.2182 10.4046 70.1558 12.5148 73.0738 17.1111C69.234 13.6717 67.1335 12.1658 63.5589 10.8706ZM166.741 160.689C169.496 154.981 170.873 151.675 163.936 139.864C163.048 138.595 162.266 137.494 161.562 136.503L161.562 136.503L161.562 136.503C158.646 132.395 157.079 130.187 154.859 125.853C154.326 126.84 154.098 127.408 153.765 128.435C155.364 131.914 156.261 133.852 157.877 137.114C154.964 136.787 153.504 135.935 150.943 134.245C153.422 140.188 155.019 143.405 159.277 148.352C154.555 148.165 151.992 147.519 147.487 145.937C153.229 153.241 157.013 156.846 166.741 160.689Z" fill="#222222"/>
<path d="M19.5402 218.133L13.18 198.9C12.8939 198.053 12.6467 197.347 12.4386 196.782C12.2565 196.217 12.0875 195.737 11.9314 195.342C11.8013 194.946 11.6843 194.622 11.5802 194.367C11.4762 194.113 11.3851 193.873 11.3071 193.647C11.0209 192.941 10.7218 192.405 10.4096 192.037C10.1235 191.642 9.82434 191.36 9.51219 191.19C9.20003 190.992 8.87487 190.879 8.5367 190.851C8.22455 190.823 7.89939 190.809 7.56122 190.809L7.36612 190.639L7.28809 189.877L7.32711 189.707C7.5092 189.707 7.76932 189.722 8.10749 189.75C8.47167 189.778 8.84886 189.806 9.23905 189.835C9.62925 189.863 10.0064 189.891 10.3706 189.919C10.7348 189.947 11.0079 189.962 11.19 189.962H12.5167C12.6988 189.962 12.9979 189.947 13.4141 189.919C13.8303 189.891 14.2595 189.863 14.7018 189.835C15.17 189.806 15.6122 189.778 16.0284 189.75C16.4446 189.722 16.7438 189.707 16.9259 189.707L17.0039 189.877L16.8868 190.639L16.6917 190.809C15.9374 190.809 15.3521 190.908 14.9359 191.105C14.5197 191.275 14.3116 191.769 14.3116 192.588C14.3116 193.238 14.5067 194.156 14.8969 195.342C15.3131 196.5 15.8203 197.968 16.4186 199.747L19.0719 207.542C19.5662 209.011 19.9954 210.338 20.3596 211.524C20.7498 212.682 21.1009 213.685 21.4131 214.532C21.6992 213.713 22.0374 212.739 22.4276 211.609C22.8438 210.479 23.312 209.124 23.8323 207.542L26.4856 199.747C26.8498 198.646 27.1749 197.672 27.4611 196.824C27.7732 195.977 28.0334 195.215 28.2415 194.537C28.1114 194.085 27.9553 193.647 27.7732 193.224C27.6172 192.8 27.4091 192.419 27.1489 192.08C26.9148 191.741 26.6027 191.458 26.2125 191.232C25.8223 191.007 25.341 190.865 24.7687 190.809L24.5737 190.639L24.4956 189.877L24.5346 189.707C24.7167 189.707 24.9769 189.722 25.315 189.75C25.6792 189.778 26.0434 189.806 26.4076 189.835C26.7978 189.863 27.1619 189.891 27.5001 189.919C27.8643 189.947 28.1374 189.962 28.3195 189.962H29.6071C29.7892 189.962 30.0754 189.947 30.4656 189.919C30.8558 189.891 31.272 189.863 31.7142 189.835C32.1564 189.806 32.5726 189.778 32.9628 189.75C33.353 189.722 33.6391 189.707 33.8212 189.707L33.8993 189.877L33.7822 190.639L33.5871 190.809C33.301 190.809 32.9888 190.865 32.6507 190.978C32.3385 191.063 32.0394 191.204 31.7532 191.402C31.4931 191.6 31.272 191.84 31.0899 192.122C30.9338 192.405 30.8558 192.729 30.8558 193.096C30.8558 193.379 30.8818 193.577 30.9338 193.69C31.0899 194.396 31.337 195.243 31.6752 196.231C32.0394 197.22 32.4426 198.392 32.8848 199.747L35.5381 207.542C36.0323 208.983 36.4745 210.31 36.8647 211.524C37.2549 212.711 37.5931 213.713 37.8792 214.532C38.1654 213.713 38.5036 212.739 38.8937 211.609C39.31 210.479 39.7782 209.124 40.2984 207.542L42.9518 199.747C43.5501 197.968 44.0443 196.5 44.4345 195.342C44.8507 194.156 45.0588 193.238 45.0588 192.588C45.0588 191.769 44.8507 191.275 44.4345 191.105C44.0183 190.908 43.433 190.809 42.6786 190.809L42.5225 190.639L42.4055 189.877L42.4835 189.707C42.6656 189.707 42.9518 189.722 43.342 189.75C43.7321 189.778 44.1353 189.806 44.5516 189.835C44.9678 189.863 45.371 189.891 45.7612 189.919C46.1513 189.947 46.4375 189.962 46.6196 189.962H47.3609C47.543 189.962 47.8032 189.947 48.1413 189.919C48.5055 189.891 48.8827 189.863 49.2729 189.835C49.6631 189.806 50.0403 189.778 50.4045 189.75C50.7686 189.722 51.0418 189.707 51.2239 189.707L51.3019 189.877L51.1848 190.639L50.9897 190.809C50.6516 190.809 50.3264 190.823 50.0143 190.851C49.7021 190.879 49.3899 190.992 49.0778 191.19C48.7656 191.36 48.4535 191.642 48.1413 192.037C47.8552 192.405 47.556 192.941 47.2439 193.647C47.1658 193.873 47.0488 194.156 46.8927 194.494C46.7626 194.833 46.5285 195.469 46.1904 196.401C45.8522 197.333 45.358 198.674 44.7076 200.425C44.0833 202.148 43.2379 204.506 42.1714 207.5C41.8072 208.488 41.43 209.519 41.0398 210.592C40.6756 211.637 40.3115 212.64 39.9473 213.6C39.6091 214.532 39.31 215.365 39.0498 216.1C38.7897 216.834 38.6076 217.356 38.5036 217.667L36.4745 218.133H36.0063L29.217 197.714C28.8528 198.702 28.3845 199.973 27.8123 201.527C27.266 203.08 26.5636 205.071 25.7052 207.5C25.367 208.488 25.0029 209.519 24.6127 210.592C24.2225 211.637 23.8453 212.64 23.4811 213.6C23.1429 214.532 22.8438 215.365 22.5837 216.1C22.3235 216.834 22.1414 217.356 22.0374 217.667L20.0084 218.133H19.5402Z" fill="#222222"/>
<path d="M62.7388 189.496L69.138 208.728C69.3981 209.576 69.6192 210.282 69.8013 210.847C70.0094 211.411 70.1785 211.891 70.3086 212.287C70.4647 212.682 70.5947 213.021 70.6988 213.304C70.8028 213.558 70.8939 213.784 70.9719 213.981C71.258 214.687 71.5442 215.238 71.8303 215.634C72.1425 216.001 72.4546 216.283 72.7668 216.481C73.079 216.65 73.3911 216.749 73.7033 216.777C74.0414 216.806 74.3796 216.82 74.7178 216.82L74.9129 216.989L75.0299 217.752L74.9519 217.921C74.7698 217.921 74.4967 217.907 74.1325 217.879C73.7683 217.851 73.3911 217.822 73.0009 217.794C72.6107 217.766 72.2335 217.738 71.8694 217.709C71.5312 217.681 71.2711 217.667 71.089 217.667H69.8013C69.6192 217.667 69.3201 217.681 68.9039 217.709C68.4877 217.738 68.0455 217.766 67.5772 217.794C67.135 217.822 66.7058 217.851 66.2896 217.879C65.8734 217.907 65.5742 217.921 65.3921 217.921L65.3141 217.752L65.4312 216.989L65.5872 216.82C66.3416 216.82 66.9269 216.735 67.3431 216.566C67.7593 216.368 67.9674 215.859 67.9674 215.04C67.9674 214.391 67.7593 213.487 67.3431 212.329C66.9529 211.143 66.4587 209.66 65.8604 207.881L65.197 205.848H56.4567L55.7934 207.881C55.1951 209.66 54.6878 211.143 54.2716 212.329C53.8814 213.487 53.6863 214.391 53.6863 215.04C53.6863 215.859 53.8944 216.368 54.3107 216.566C54.7269 216.735 55.3121 216.82 56.0665 216.82L56.2616 216.989L56.3787 217.752L56.3006 217.921C56.1185 217.921 55.8324 217.907 55.4422 217.879C55.052 217.851 54.6358 217.822 54.1936 217.794C53.7774 217.766 53.3742 217.738 52.984 217.709C52.5938 217.681 52.3077 217.667 52.1256 217.667H51.3842C51.2021 217.667 50.929 217.681 50.5648 217.709C50.2006 217.738 49.8234 217.766 49.4332 217.794C49.043 217.822 48.6659 217.851 48.3017 217.879C47.9635 217.907 47.7034 217.921 47.5213 217.921L47.4823 217.752L47.5603 216.989L47.7554 216.82C48.0936 216.82 48.4187 216.806 48.7309 216.777C49.043 216.749 49.3552 216.65 49.6673 216.481C49.9795 216.283 50.2787 216.001 50.5648 215.634C50.8769 215.238 51.1891 214.687 51.5013 213.981C51.5793 213.84 51.6443 213.685 51.6964 213.515C51.7744 213.318 51.8784 213.035 52.0085 212.668C52.1646 212.301 52.3467 211.821 52.5548 211.228C52.7889 210.606 53.075 209.816 53.4132 208.855C53.7774 207.867 54.2066 206.667 54.7008 205.255C55.2211 203.843 55.8454 202.134 56.5738 200.129C56.9119 199.14 57.2631 198.166 57.6273 197.206C57.9915 196.217 58.3296 195.299 58.6418 194.452C58.954 193.605 59.2271 192.856 59.4612 192.207C59.7213 191.557 59.9034 191.077 60.0075 190.766L62.3096 189.496H62.7388ZM57.12 204.026H64.5727L60.8659 193.139L57.12 204.026Z" fill="#222222"/>
<path d="M85.7916 217.921C85.6095 217.921 85.3104 217.907 84.8942 217.879C84.478 217.851 84.0488 217.822 83.6065 217.794C83.1643 217.766 82.7351 217.738 82.3189 217.709C81.9027 217.681 81.6036 217.667 81.4215 217.667H80.6801C80.498 217.667 80.1989 217.681 79.7827 217.709C79.3664 217.738 78.9372 217.766 78.495 217.794C78.0528 217.822 77.6236 217.851 77.2074 217.879C76.7912 217.907 76.492 217.921 76.3099 217.921L76.2319 217.752L76.349 216.989L76.544 216.82C76.8562 216.82 77.2204 216.806 77.6366 216.777C78.0528 216.721 78.378 216.608 78.6121 216.438C78.8202 216.269 79.0153 216.001 79.1974 215.634C79.3795 215.266 79.5095 214.716 79.5876 213.981C79.5876 213.784 79.5876 213.558 79.5876 213.304C79.6136 213.021 79.6266 212.682 79.6266 212.287C79.6526 211.891 79.6656 211.411 79.6656 210.847C79.6656 210.282 79.6656 209.576 79.6656 208.728V197.714C79.6656 197.149 79.6526 196.514 79.6266 195.808C79.6266 195.073 79.6006 194.353 79.5485 193.647C79.4965 192.998 79.3795 192.489 79.1974 192.122C79.0153 191.727 78.8202 191.43 78.6121 191.232C78.378 191.091 78.1308 190.992 77.8707 190.936C77.6366 190.851 77.1944 190.809 76.544 190.809L76.349 190.639L76.2319 189.877L76.3099 189.707C76.492 189.707 76.7261 189.722 77.0123 189.75C77.3244 189.778 77.6366 189.806 77.9487 189.835C78.2869 189.863 78.6251 189.891 78.9632 189.919C79.3014 189.947 79.6136 189.962 79.8997 189.962H81.3044C81.5906 189.962 81.9157 189.962 82.2799 189.962C82.6441 189.962 83.0083 189.962 83.3724 189.962C83.7626 189.933 84.1138 189.919 84.426 189.919C84.7381 189.919 84.9982 189.919 85.2063 189.919C86.9492 189.919 88.4189 190.103 89.6155 190.47C90.8381 190.837 91.8266 191.345 92.581 191.995C93.3354 192.616 93.8816 193.379 94.2198 194.283C94.584 195.158 94.7661 196.104 94.7661 197.121C94.7661 198.335 94.558 199.394 94.1418 200.298C93.7516 201.174 93.2443 201.936 92.62 202.586C91.9957 203.207 91.2934 203.715 90.513 204.111C89.7326 204.478 88.9652 204.76 88.2108 204.958C89.0432 206.229 89.9017 207.486 90.7861 208.728C91.6705 209.971 92.581 211.185 93.5175 212.372C94.0377 213.021 94.519 213.6 94.9612 214.108C95.4034 214.617 95.8716 215.055 96.3659 215.422C96.8861 215.789 97.4584 216.085 98.0827 216.311C98.707 216.537 99.4614 216.707 100.346 216.82L100.58 216.989L100.658 217.752L100.58 217.921C100.008 217.949 99.3574 217.978 98.629 218.006C97.9006 218.062 97.3283 218.091 96.9121 218.091C96.2358 218.091 95.6505 218.006 95.1563 217.836C94.662 217.667 94.1808 217.399 93.7126 217.032C93.2443 216.664 92.7631 216.184 92.2688 215.591C91.8006 214.998 91.2543 214.292 90.63 213.473C90.552 213.388 90.3179 213.064 89.9277 212.499C89.5635 211.906 89.1083 211.214 88.562 210.423C88.0417 209.604 87.4825 208.743 86.8842 207.839C86.3119 206.907 85.7786 206.045 85.2844 205.255H82.436C82.436 206.017 82.436 206.85 82.436 207.754C82.436 208.658 82.436 209.519 82.436 210.338C82.462 211.157 82.475 211.906 82.475 212.583C82.501 213.233 82.527 213.699 82.553 213.981C82.6051 214.8 82.7351 215.379 82.9432 215.718C83.1513 216.029 83.3334 216.255 83.4895 216.396C83.7236 216.537 83.9577 216.65 84.1918 216.735C84.452 216.791 84.9202 216.82 85.5965 216.82L85.7526 216.989L85.8697 217.752L85.7916 217.921ZM85.9867 203.391C88.1458 203.391 89.6936 202.854 90.63 201.781C91.5925 200.679 92.0737 199.211 92.0737 197.375C92.0737 195.652 91.5275 194.325 90.4349 193.393C89.3684 192.461 87.8987 191.995 86.0257 191.995H82.6311C82.579 192.814 82.54 193.506 82.514 194.071C82.514 194.636 82.501 195.13 82.475 195.554C82.449 195.977 82.436 196.358 82.436 196.697C82.436 197.036 82.436 197.361 82.436 197.672V201.823C82.436 202.19 82.449 202.487 82.475 202.713C82.501 202.911 82.566 203.066 82.6701 203.179C82.7741 203.264 82.9172 203.32 83.0993 203.348C83.3074 203.377 83.5805 203.391 83.9187 203.391H85.9867Z" fill="#222222"/>
<path d="M110.001 218.133L103.641 198.9C103.355 198.053 103.108 197.347 102.899 196.782C102.717 196.217 102.548 195.737 102.392 195.342C102.262 194.946 102.145 194.622 102.041 194.367C101.937 194.113 101.846 193.873 101.768 193.647C101.482 192.941 101.183 192.405 100.87 192.037C100.584 191.642 100.285 191.36 99.973 191.19C99.6609 190.992 99.3357 190.879 98.9975 190.851C98.6854 190.823 98.3602 190.809 98.0221 190.809L97.827 190.639L97.7489 189.877L97.7879 189.707C97.97 189.707 98.2302 189.722 98.5683 189.75C98.9325 189.778 99.3097 189.806 99.6999 189.835C100.09 189.863 100.467 189.891 100.831 189.919C101.196 189.947 101.469 189.962 101.651 189.962H102.978C103.16 189.962 103.459 189.947 103.875 189.919C104.291 189.891 104.72 189.863 105.163 189.835C105.631 189.806 106.073 189.778 106.489 189.75C106.905 189.722 107.205 189.707 107.387 189.707L107.465 189.877L107.348 190.639L107.153 190.809C106.398 190.809 105.813 190.908 105.397 191.105C104.981 191.275 104.772 191.769 104.772 192.588C104.772 193.238 104.968 194.156 105.358 195.342C105.774 196.5 106.281 197.968 106.879 199.747L109.533 207.542C110.027 209.011 110.456 210.338 110.82 211.524C111.211 212.682 111.562 213.685 111.874 214.532C112.16 213.713 112.498 212.739 112.888 211.609C113.305 210.479 113.773 209.124 114.293 207.542L116.946 199.747C117.311 198.646 117.636 197.672 117.922 196.824C118.234 195.977 118.494 195.215 118.702 194.537C118.572 194.085 118.416 193.647 118.234 193.224C118.078 192.8 117.87 192.419 117.61 192.08C117.376 191.741 117.063 191.458 116.673 191.232C116.283 191.007 115.802 190.865 115.23 190.809L115.034 190.639L114.956 189.877L114.995 189.707C115.178 189.707 115.438 189.722 115.776 189.75C116.14 189.778 116.504 189.806 116.868 189.835C117.259 189.863 117.623 189.891 117.961 189.919C118.325 189.947 118.598 189.962 118.78 189.962H120.068C120.25 189.962 120.536 189.947 120.926 189.919C121.317 189.891 121.733 189.863 122.175 189.835C122.617 189.806 123.033 189.778 123.424 189.75C123.814 189.722 124.1 189.707 124.282 189.707L124.36 189.877L124.243 190.639L124.048 190.809C123.762 190.809 123.45 190.865 123.111 190.978C122.799 191.063 122.5 191.204 122.214 191.402C121.954 191.6 121.733 191.84 121.551 192.122C121.395 192.405 121.317 192.729 121.317 193.096C121.317 193.379 121.343 193.577 121.395 193.69C121.551 194.396 121.798 195.243 122.136 196.231C122.5 197.22 122.903 198.392 123.346 199.747L125.999 207.542C126.493 208.983 126.935 210.31 127.326 211.524C127.716 212.711 128.054 213.713 128.34 214.532C128.626 213.713 128.964 212.739 129.355 211.609C129.771 210.479 130.239 209.124 130.759 207.542L133.413 199.747C134.011 197.968 134.505 196.5 134.895 195.342C135.312 194.156 135.52 193.238 135.52 192.588C135.52 191.769 135.312 191.275 134.895 191.105C134.479 190.908 133.894 190.809 133.139 190.809L132.983 190.639L132.866 189.877L132.944 189.707C133.126 189.707 133.413 189.722 133.803 189.75C134.193 189.778 134.596 189.806 135.012 189.835C135.429 189.863 135.832 189.891 136.222 189.919C136.612 189.947 136.898 189.962 137.08 189.962H137.822C138.004 189.962 138.264 189.947 138.602 189.919C138.966 189.891 139.344 189.863 139.734 189.835C140.124 189.806 140.501 189.778 140.865 189.75C141.229 189.722 141.503 189.707 141.685 189.707L141.763 189.877L141.646 190.639L141.451 190.809C141.112 190.809 140.787 190.823 140.475 190.851C140.163 190.879 139.851 190.992 139.539 191.19C139.226 191.36 138.914 191.642 138.602 192.037C138.316 192.405 138.017 192.941 137.705 193.647C137.627 193.873 137.51 194.156 137.354 194.494C137.223 194.833 136.989 195.469 136.651 196.401C136.313 197.333 135.819 198.674 135.168 200.425C134.544 202.148 133.699 204.506 132.632 207.5C132.268 208.488 131.891 209.519 131.501 210.592C131.136 211.637 130.772 212.64 130.408 213.6C130.07 214.532 129.771 215.365 129.511 216.1C129.251 216.834 129.068 217.356 128.964 217.667L126.935 218.133H126.467L119.678 197.714C119.314 198.702 118.845 199.973 118.273 201.527C117.727 203.08 117.024 205.071 116.166 207.5C115.828 208.488 115.464 209.519 115.074 210.592C114.683 211.637 114.306 212.64 113.942 213.6C113.604 214.532 113.305 215.365 113.045 216.1C112.784 216.834 112.602 217.356 112.498 217.667L110.469 218.133H110.001Z" fill="#222222"/>
<path d="M152.286 189.877L152.169 190.639L152.013 190.809C151.597 190.809 151.194 190.837 150.804 190.894C150.439 190.922 150.14 191.035 149.906 191.232C149.698 191.43 149.503 191.684 149.321 191.995C149.139 192.306 149.022 192.856 148.97 193.647C148.944 194.043 148.918 194.41 148.892 194.749C148.892 195.088 148.879 195.483 148.853 195.935C148.853 196.387 148.853 196.937 148.853 197.587C148.853 198.236 148.853 199.07 148.853 200.086V207.881C148.853 208.898 148.853 209.731 148.853 210.381C148.853 211.002 148.853 211.524 148.853 211.948C148.879 212.372 148.892 212.739 148.892 213.049C148.918 213.332 148.944 213.642 148.97 213.981C149.022 214.772 149.139 215.323 149.321 215.634C149.503 215.944 149.698 216.198 149.906 216.396C150.14 216.594 150.439 216.721 150.804 216.777C151.194 216.806 151.597 216.82 152.013 216.82L152.169 216.989L152.286 217.752L152.208 217.921C152.026 217.921 151.727 217.907 151.311 217.879C150.895 217.851 150.465 217.822 150.023 217.794C149.581 217.766 149.152 217.738 148.736 217.709C148.319 217.681 148.02 217.667 147.838 217.667H147.097C146.915 217.667 146.616 217.681 146.199 217.709C145.783 217.738 145.354 217.766 144.912 217.794C144.469 217.822 144.04 217.851 143.624 217.879C143.208 217.907 142.909 217.921 142.727 217.921L142.649 217.752L142.766 216.989L142.961 216.82C143.377 216.82 143.767 216.806 144.131 216.777C144.496 216.721 144.795 216.594 145.029 216.396C145.237 216.198 145.432 215.944 145.614 215.634C145.822 215.323 145.952 214.772 146.004 213.981C146.004 213.784 146.004 213.558 146.004 213.304C146.03 213.021 146.043 212.682 146.043 212.287C146.069 211.891 146.082 211.411 146.082 210.847C146.082 210.282 146.082 209.576 146.082 208.728V200.129C146.082 199.14 146.082 198.307 146.082 197.629C146.082 196.951 146.069 196.373 146.043 195.892C146.043 195.412 146.03 195.003 146.004 194.664C146.004 194.325 145.991 193.986 145.965 193.647C145.913 192.913 145.796 192.376 145.614 192.037C145.432 191.698 145.237 191.43 145.029 191.232C144.795 191.035 144.496 190.922 144.131 190.894C143.767 190.837 143.377 190.809 142.961 190.809L142.766 190.639L142.649 189.877L142.727 189.707C142.909 189.707 143.208 189.722 143.624 189.75C144.04 189.778 144.469 189.806 144.912 189.835C145.354 189.863 145.783 189.891 146.199 189.919C146.616 189.947 146.915 189.962 147.097 189.962H147.838C148.02 189.962 148.319 189.947 148.736 189.919C149.152 189.891 149.581 189.863 150.023 189.835C150.465 189.806 150.895 189.778 151.311 189.75C151.727 189.722 152.026 189.707 152.208 189.707L152.286 189.877Z" fill="#222222"/>
<path d="M175.197 195.003C175.119 194.381 174.872 193.859 174.456 193.435C174.04 193.012 173.52 192.673 172.895 192.419C172.297 192.164 171.621 191.995 170.866 191.91C170.138 191.797 169.41 191.741 168.681 191.741C166.106 191.741 164.077 192.376 162.594 193.647C161.372 194.72 160.448 196.147 159.824 197.926C159.226 199.705 158.926 201.654 158.926 203.772C158.926 205.777 159.186 207.542 159.707 209.067C160.253 210.564 160.994 211.821 161.931 212.838C162.867 213.854 163.973 214.631 165.247 215.168C166.548 215.676 167.953 215.93 169.462 215.93C170.528 215.93 171.751 215.775 173.129 215.464C174.534 215.125 175.861 214.49 177.109 213.558L177.5 214.024L176.641 215.93C175.34 216.693 174.04 217.257 172.739 217.625C171.465 217.964 170.138 218.133 168.759 218.133C166.808 218.133 165.039 217.794 163.453 217.116C161.866 216.438 160.5 215.478 159.356 214.236C158.237 212.965 157.366 211.468 156.741 209.745C156.117 207.994 155.805 206.06 155.805 203.941C155.805 201.964 156.078 200.1 156.624 198.349C157.196 196.57 158.029 195.031 159.121 193.732C160.24 192.433 161.606 191.402 163.218 190.639C164.857 189.877 166.756 189.496 168.915 189.496C169.384 189.496 169.93 189.524 170.554 189.58C171.204 189.609 171.881 189.679 172.583 189.792C173.285 189.905 174.001 190.06 174.729 190.258C175.458 190.428 176.16 190.654 176.836 190.936L176.953 191.317L176.446 195.172H175.314L175.197 195.003Z" fill="#222222"/>
<path d="M190.391 189.877L190.274 190.639L190.118 190.809C189.702 190.809 189.299 190.837 188.908 190.894C188.544 190.922 188.245 191.035 188.011 191.232C187.803 191.43 187.608 191.684 187.426 191.995C187.244 192.306 187.127 192.856 187.075 193.647C187.049 194.043 187.023 194.41 186.997 194.749C186.997 195.088 186.983 195.483 186.957 195.935C186.957 196.387 186.957 196.937 186.957 197.587C186.957 198.236 186.957 199.07 186.957 200.086V202.967C187.66 202.487 188.505 201.795 189.494 200.891C190.508 199.987 191.484 199.027 192.42 198.011C193.539 196.796 194.475 195.666 195.23 194.622C195.984 193.548 196.361 192.814 196.361 192.419C196.361 192.108 196.296 191.868 196.166 191.698C196.036 191.501 195.867 191.345 195.659 191.232C195.477 191.12 195.256 191.035 194.995 190.978C194.761 190.922 194.514 190.865 194.254 190.809L194.059 190.639V189.877L194.254 189.707C195.295 189.877 196.439 189.962 197.688 189.962H199.6C199.912 189.962 200.172 189.962 200.38 189.962C200.614 189.962 200.835 189.947 201.043 189.919C201.278 189.891 201.525 189.863 201.785 189.835C202.045 189.806 202.357 189.764 202.721 189.707L202.877 189.877V190.639L202.721 190.809C202.383 190.894 201.928 191.007 201.356 191.148C200.783 191.261 200.302 191.458 199.912 191.741C199.652 191.91 199.353 192.179 199.014 192.546C198.702 192.913 198.312 193.379 197.844 193.944C197.402 194.509 196.868 195.172 196.244 195.935C195.62 196.697 194.865 197.559 193.981 198.519L190.859 201.993C193.018 205.551 195.412 209.011 198.039 212.372C198.559 213.021 199.04 213.6 199.483 214.108C199.925 214.617 200.393 215.055 200.887 215.422C201.408 215.789 201.98 216.085 202.604 216.311C203.229 216.537 203.983 216.707 204.867 216.82L205.101 216.989L205.18 217.752L205.101 217.921C204.529 217.921 203.879 217.949 203.151 218.006C202.422 218.062 201.85 218.091 201.434 218.091C200.757 218.091 200.172 218.006 199.678 217.836C199.184 217.695 198.702 217.441 198.234 217.074C197.792 216.707 197.324 216.227 196.829 215.634C196.335 215.04 195.776 214.32 195.152 213.473C195.074 213.36 194.774 212.922 194.254 212.16C193.734 211.369 193.136 210.465 192.459 209.449C191.809 208.404 191.133 207.359 190.43 206.314C189.754 205.241 189.208 204.365 188.791 203.687H188.635C188.349 203.913 188.076 204.125 187.816 204.323C187.556 204.492 187.27 204.718 186.957 205V207.881C186.957 208.898 186.957 209.731 186.957 210.381C186.957 211.002 186.957 211.524 186.957 211.948C186.983 212.372 186.997 212.739 186.997 213.049C187.023 213.332 187.049 213.642 187.075 213.981C187.127 214.772 187.244 215.323 187.426 215.634C187.608 215.944 187.803 216.198 188.011 216.396C188.245 216.594 188.544 216.721 188.908 216.777C189.299 216.806 189.702 216.82 190.118 216.82L190.274 216.989L190.391 217.752L190.313 217.921C190.131 217.921 189.832 217.907 189.416 217.879C189 217.851 188.57 217.822 188.128 217.794C187.686 217.766 187.257 217.738 186.84 217.709C186.424 217.681 186.125 217.667 185.943 217.667H185.202C185.02 217.667 184.72 217.681 184.304 217.709C183.888 217.738 183.459 217.766 183.017 217.794C182.574 217.822 182.145 217.851 181.729 217.879C181.313 217.907 181.014 217.921 180.831 217.921L180.753 217.752L180.87 216.989L181.066 216.82C181.482 216.82 181.872 216.806 182.236 216.777C182.6 216.721 182.899 216.594 183.134 216.396C183.342 216.198 183.537 215.944 183.719 215.634C183.927 215.323 184.057 214.772 184.109 213.981C184.109 213.784 184.109 213.558 184.109 213.304C184.135 213.021 184.148 212.682 184.148 212.287C184.174 211.891 184.187 211.411 184.187 210.847C184.187 210.282 184.187 209.576 184.187 208.728V200.129C184.187 199.14 184.187 198.307 184.187 197.629C184.187 196.951 184.187 196.373 184.187 195.892C184.187 195.412 184.174 195.003 184.148 194.664C184.148 194.325 184.135 193.986 184.109 193.647C184.057 192.885 183.927 192.348 183.719 192.037C183.537 191.698 183.342 191.43 183.134 191.232C182.899 191.035 182.6 190.922 182.236 190.894C181.872 190.837 181.482 190.809 181.066 190.809L180.87 190.639L180.753 189.877L180.831 189.707C181.014 189.707 181.313 189.722 181.729 189.75C182.145 189.778 182.574 189.806 183.017 189.835C183.459 189.863 183.888 189.891 184.304 189.919C184.72 189.947 185.02 189.962 185.202 189.962H185.943C186.125 189.962 186.424 189.947 186.84 189.919C187.257 189.891 187.686 189.863 188.128 189.835C188.57 189.806 189 189.778 189.416 189.75C189.832 189.722 190.131 189.707 190.313 189.707L190.391 189.877Z" fill="#222222"/>
<path d="M64.9384 224.068C65.1641 224.068 65.5027 224.068 65.9541 224.068C66.4228 224.049 66.8916 224.03 67.3603 224.011C67.8291 223.992 68.2458 223.983 68.6104 223.983C68.9923 223.964 69.2267 223.954 69.3135 223.954L69.4437 224.237L69.3396 227.319H68.6885L68.5843 227.206C68.5496 226.772 68.4975 226.433 68.4281 226.188C68.376 225.943 68.2024 225.764 67.9072 225.651C67.6295 225.538 67.2041 225.472 66.6312 225.453C66.0582 225.434 65.2509 225.425 64.2092 225.425H61.7092L61.6571 226.527C61.6397 226.829 61.6224 227.083 61.605 227.291C61.605 227.498 61.5963 227.753 61.579 228.054C61.579 228.356 61.579 228.723 61.579 229.157C61.579 229.572 61.579 230.589 61.579 232.21C62.0998 232.192 62.6206 232.182 63.1415 232.182C63.6623 232.182 64.1311 232.173 64.5478 232.154C64.9818 232.135 65.3464 232.097 65.6416 232.041C65.9367 231.965 66.1364 231.862 66.2405 231.73C66.3794 231.579 66.501 231.428 66.6051 231.277C66.7093 231.127 66.7614 230.91 66.7614 230.627L66.8916 230.486L67.3343 230.429L67.4385 230.486C67.4038 230.919 67.369 231.296 67.3343 231.617C67.3169 231.937 67.3083 232.305 67.3083 232.719C67.3083 233.172 67.3169 233.596 67.3343 233.992C67.369 234.369 67.4038 234.783 67.4385 235.236L67.3343 235.292L66.8655 235.236L66.7614 235.151C66.7614 234.849 66.7093 234.576 66.6051 234.331C66.501 234.067 66.3794 233.85 66.2405 233.681C66.1364 233.568 65.9367 233.483 65.6416 233.426C65.3464 233.37 64.9905 233.332 64.5738 233.313C64.1571 233.294 63.6884 233.285 63.1675 233.285C62.6467 233.285 62.1172 233.285 61.579 233.285V236.027C61.579 236.706 61.579 237.262 61.579 237.696C61.579 238.11 61.579 238.487 61.579 238.827C61.5963 239.147 61.6137 239.449 61.631 239.731C61.6484 239.995 61.6744 240.306 61.7092 240.664C61.7092 241.023 61.8828 241.202 62.23 241.202H64.4436C65.4853 241.202 66.3013 241.183 66.8916 241.145C67.4992 241.088 67.9593 240.985 68.2718 240.834C68.5843 240.683 68.8014 240.457 68.9229 240.155C69.0618 239.835 69.192 239.42 69.3135 238.911L69.4177 238.798H70.0948L69.626 242.389L69.4177 242.672C69.3309 242.672 69.1312 242.662 68.8187 242.644C68.5062 242.644 68.1503 242.634 67.751 242.615C67.369 242.596 66.9784 242.578 66.5791 242.559C66.1971 242.559 65.8933 242.559 65.6676 242.559H60.407C60.2855 242.559 60.0859 242.568 59.8081 242.587C59.5303 242.606 59.2438 242.625 58.9487 242.644C58.6535 242.662 58.3671 242.681 58.0893 242.7C57.8115 242.719 57.6118 242.728 57.4903 242.728L57.4382 242.615L57.5164 242.106L57.6466 241.993C57.9244 241.993 58.1848 241.984 58.4278 241.965C58.6709 241.927 58.8706 241.842 59.0268 241.711C59.1657 241.579 59.2959 241.409 59.4174 241.202C59.5563 240.994 59.6431 240.627 59.6779 240.099C59.6779 239.967 59.6779 239.816 59.6779 239.647C59.6952 239.458 59.7039 239.232 59.7039 238.968C59.7213 238.704 59.73 238.384 59.73 238.007C59.73 237.63 59.73 237.158 59.73 236.593V230.853C59.73 230.194 59.73 229.638 59.73 229.185C59.73 228.733 59.73 228.346 59.73 228.026C59.73 227.706 59.7213 227.432 59.7039 227.206C59.7039 226.98 59.6952 226.754 59.6779 226.527C59.6431 226.018 59.5563 225.66 59.4174 225.453C59.2959 225.227 59.1657 225.048 59.0268 224.916C58.8706 224.784 58.6709 224.708 58.4278 224.69C58.1848 224.652 57.9244 224.633 57.6466 224.633L57.5164 224.52L57.4382 224.011L57.4903 223.898C57.6118 223.898 57.8115 223.907 58.0893 223.926C58.3671 223.945 58.6622 223.964 58.9747 223.983C59.3046 224.002 59.6171 224.02 59.9122 224.039C60.2248 224.058 60.4765 224.068 60.6675 224.068H64.9384Z" fill="#222222"/>
<path d="M74.7899 228.196C74.7899 228.723 74.8767 229.166 75.0504 229.524C75.224 229.864 75.4844 230.165 75.8316 230.429C76.1962 230.693 76.6476 230.938 77.1858 231.164C77.7414 231.372 78.3925 231.598 79.139 231.843C79.7814 232.069 80.4151 232.324 81.0401 232.606C81.6651 232.889 82.2207 233.257 82.7068 233.709C83.2103 234.143 83.6096 234.68 83.9047 235.321C84.1999 235.943 84.3475 236.706 84.3475 237.611C84.3475 238.572 84.1738 239.392 83.8266 240.071C83.4794 240.73 83.0193 241.268 82.4464 241.682C81.8734 242.097 81.205 242.399 80.4411 242.587C79.6946 242.776 78.9046 242.87 78.0713 242.87C76.9948 242.87 76.0139 242.738 75.1285 242.474C74.243 242.21 73.4444 241.88 72.7326 241.484L72.6284 241.117L73.0711 238.091H73.7222L73.8524 238.261C73.9392 239.411 74.3646 240.259 75.1285 240.806C75.8924 241.334 76.9341 241.597 78.2536 241.597C79.6078 241.597 80.6234 241.268 81.3005 240.608C81.995 239.929 82.3422 239.053 82.3422 237.978C82.3422 237.319 82.212 236.772 81.9516 236.338C81.6911 235.886 81.3439 235.509 80.9099 235.208C80.4932 234.887 80.0071 234.623 79.4515 234.416C78.9133 234.209 78.3664 234.001 77.8108 233.794C77.1164 233.549 76.4653 233.285 75.8577 233.002C75.2674 232.701 74.7465 232.352 74.2951 231.956C73.8611 231.56 73.5139 231.089 73.2534 230.542C73.0104 229.996 72.8888 229.345 72.8888 228.591C72.8888 227.706 73.0277 226.961 73.3055 226.358C73.6007 225.736 74 225.236 74.5035 224.859C75.007 224.463 75.5886 224.181 76.2483 224.011C76.9254 223.841 77.6546 223.757 78.4359 223.757C79.3734 223.757 80.2588 223.851 81.0922 224.039C81.9255 224.228 82.6026 224.454 83.1235 224.718L83.2276 225.029L82.8631 227.545H82.1339L82.0037 227.404C81.9689 226.914 81.8214 226.518 81.5609 226.216C81.3005 225.915 80.988 225.679 80.6234 225.51C80.2762 225.34 79.8942 225.227 79.4776 225.17C79.0782 225.114 78.7223 225.085 78.4098 225.085C77.2813 225.085 76.3959 225.359 75.7535 225.905C75.1111 226.433 74.7899 227.197 74.7899 228.196Z" fill="#222222"/>
<path d="M93.0399 242.728C92.9184 242.728 92.7187 242.719 92.4409 242.7C92.1631 242.681 91.8767 242.662 91.5815 242.644C91.2864 242.625 90.9999 242.606 90.7221 242.587C90.4444 242.568 90.2447 242.559 90.1232 242.559H89.6284C89.5068 242.559 89.3072 242.568 89.0294 242.587C88.7516 242.606 88.4651 242.625 88.17 242.644C87.8748 242.662 87.5884 242.681 87.3106 242.7C87.0328 242.719 86.8332 242.728 86.7116 242.728L86.6595 242.615L86.7377 242.106L86.8679 241.993C87.0762 241.993 87.3193 241.984 87.5971 241.965C87.8748 241.927 88.0919 241.852 88.2481 241.739C88.387 241.626 88.5172 241.447 88.6388 241.202C88.7603 240.957 88.8471 240.589 88.8992 240.099C88.8992 239.967 88.8992 239.816 88.8992 239.647C88.9165 239.458 88.9252 239.232 88.9252 238.968C88.9426 238.704 88.9513 238.384 88.9513 238.007C88.9513 237.63 88.9513 237.158 88.9513 236.593V229.242C88.9513 228.865 88.9513 228.441 88.9513 227.969C88.9513 227.479 88.9339 226.999 88.8992 226.527C88.8644 226.037 88.7776 225.679 88.6388 225.453C88.5172 225.227 88.387 225.048 88.2481 224.916C88.0919 224.822 87.9269 224.756 87.7533 224.718C87.5971 224.661 87.3019 224.633 86.8679 224.633L86.7377 224.52L86.6595 224.011L86.7116 223.898C86.8332 223.898 86.9894 223.907 87.1804 223.926C87.3887 223.945 87.5971 223.964 87.8054 223.983C88.0311 224.002 88.2568 224.02 88.4825 224.039C88.7082 224.058 88.9165 224.068 89.1075 224.068H90.045C90.236 224.068 90.453 224.068 90.6961 224.068C90.9392 224.068 91.1822 224.068 91.4253 224.068C91.6857 224.049 91.9201 224.039 92.1284 224.039C92.3368 224.039 92.5104 224.039 92.6493 224.039C93.8125 224.039 94.7934 224.162 95.592 224.407C96.408 224.652 97.0678 225.001 97.5713 225.453C98.0748 225.905 98.4393 226.452 98.665 227.093C98.9081 227.715 99.0296 228.403 99.0296 229.157C99.0296 230.25 98.8213 231.155 98.4046 231.871C97.9879 232.569 97.4497 233.125 96.79 233.539C96.1476 233.935 95.4184 234.209 94.6024 234.359C93.8038 234.51 93.0225 234.585 92.2586 234.585H90.8003C90.8003 235.094 90.8003 235.632 90.8003 236.197C90.8003 236.763 90.8003 237.3 90.8003 237.809C90.8176 238.318 90.8263 238.779 90.8263 239.194C90.8437 239.609 90.861 239.91 90.8784 240.099C90.9131 240.646 90.9999 241.032 91.1388 241.258C91.2777 241.465 91.3992 241.616 91.5034 241.711C91.6597 241.805 91.8159 241.88 91.9722 241.937C92.1458 241.974 92.4583 241.993 92.9097 241.993L93.0139 242.106L93.092 242.615L93.0399 242.728ZM93.1701 233.341C94.6285 233.341 95.6702 232.983 96.2952 232.267C96.9202 231.551 97.2327 230.561 97.2327 229.298C97.2327 227.998 96.8681 227.027 96.1389 226.386C95.4271 225.745 94.4462 225.425 93.1962 225.425H90.9305C90.8958 225.971 90.8697 226.433 90.8523 226.81C90.8523 227.187 90.8437 227.517 90.8263 227.8C90.8089 228.082 90.8003 228.337 90.8003 228.563C90.8003 228.789 90.8003 229.006 90.8003 229.213V232.295C90.8003 232.54 90.8089 232.738 90.8263 232.889C90.8437 233.021 90.8871 233.125 90.9565 233.2C91.026 233.257 91.1214 233.294 91.243 233.313C91.3819 233.332 91.5642 233.341 91.7899 233.341H93.1701Z" fill="#222222"/>
<path d="M109.781 223.757C111.135 223.757 112.341 224.011 113.401 224.52C114.46 225.029 115.345 225.726 116.057 226.612C116.786 227.479 117.342 228.488 117.724 229.638C118.105 230.787 118.296 231.994 118.296 233.257C118.296 234.501 118.105 235.707 117.724 236.876C117.359 238.025 116.812 239.043 116.083 239.929C115.354 240.815 114.442 241.531 113.348 242.078C112.272 242.606 111.022 242.87 109.598 242.87C108.209 242.87 106.994 242.615 105.952 242.106C104.928 241.597 104.06 240.919 103.348 240.071C102.654 239.204 102.133 238.205 101.786 237.074C101.438 235.924 101.265 234.717 101.265 233.455C101.265 232.116 101.456 230.863 101.838 229.694C102.22 228.507 102.775 227.479 103.504 226.612C104.234 225.726 105.128 225.029 106.187 224.52C107.246 224.011 108.444 223.757 109.781 223.757ZM109.755 241.371C110.796 241.371 111.716 241.164 112.515 240.749C113.331 240.316 114.017 239.731 114.572 238.996C115.128 238.261 115.553 237.403 115.848 236.423C116.144 235.443 116.291 234.397 116.291 233.285C116.291 232.154 116.135 231.098 115.822 230.118C115.527 229.138 115.093 228.29 114.52 227.574C113.947 226.838 113.244 226.273 112.411 225.877C111.595 225.462 110.666 225.255 109.624 225.255C108.6 225.255 107.689 225.462 106.89 225.877C106.109 226.273 105.449 226.829 104.911 227.545C104.373 228.262 103.965 229.11 103.687 230.09C103.426 231.051 103.296 232.107 103.296 233.257C103.296 234.52 103.452 235.65 103.765 236.649C104.077 237.649 104.52 238.497 105.093 239.194C105.666 239.892 106.343 240.429 107.124 240.806C107.923 241.183 108.8 241.371 109.755 241.371Z" fill="#222222"/>
<path d="M127.017 242.728C126.895 242.728 126.696 242.719 126.418 242.7C126.14 242.681 125.854 242.662 125.559 242.644C125.263 242.625 124.977 242.606 124.699 242.587C124.421 242.568 124.222 242.559 124.1 242.559H123.605C123.484 242.559 123.284 242.568 123.006 242.587C122.729 242.606 122.442 242.625 122.147 242.644C121.852 242.662 121.565 242.681 121.288 242.7C121.01 242.719 120.81 242.728 120.689 242.728L120.637 242.615L120.715 242.106L120.845 241.993C121.053 241.993 121.296 241.984 121.574 241.965C121.852 241.927 122.069 241.852 122.225 241.739C122.364 241.626 122.494 241.447 122.616 241.202C122.737 240.957 122.824 240.589 122.876 240.099C122.876 239.967 122.876 239.816 122.876 239.647C122.894 239.458 122.902 239.232 122.902 238.968C122.92 238.704 122.928 238.384 122.928 238.007C122.928 237.63 122.928 237.158 122.928 236.593V229.242C122.928 228.865 122.92 228.441 122.902 227.969C122.902 227.479 122.885 226.999 122.85 226.527C122.815 226.094 122.737 225.755 122.616 225.51C122.494 225.246 122.364 225.048 122.225 224.916C122.069 224.822 121.904 224.756 121.73 224.718C121.574 224.661 121.279 224.633 120.845 224.633L120.715 224.52L120.637 224.011L120.689 223.898C120.81 223.898 120.966 223.907 121.157 223.926C121.366 223.945 121.574 223.964 121.782 223.983C122.008 224.002 122.234 224.02 122.46 224.039C122.685 224.058 122.894 224.068 123.085 224.068H124.022C124.213 224.068 124.43 224.068 124.673 224.068C124.916 224.068 125.159 224.068 125.402 224.068C125.663 224.049 125.897 224.039 126.105 224.039C126.314 224.039 126.487 224.039 126.626 224.039C127.79 224.039 128.771 224.162 129.569 224.407C130.385 224.652 131.045 224.991 131.548 225.425C132.052 225.839 132.416 226.348 132.642 226.952C132.885 227.536 133.007 228.167 133.007 228.846C133.007 229.656 132.868 230.363 132.59 230.966C132.33 231.551 131.991 232.06 131.574 232.493C131.158 232.908 130.689 233.247 130.168 233.511C129.647 233.756 129.135 233.945 128.632 234.077C129.187 234.925 129.76 235.764 130.35 236.593C130.941 237.422 131.548 238.233 132.173 239.024C132.521 239.458 132.842 239.844 133.137 240.184C133.432 240.523 133.745 240.815 134.074 241.06C134.422 241.305 134.804 241.503 135.22 241.654C135.637 241.805 136.14 241.918 136.731 241.993L136.887 242.106L136.939 242.615L136.887 242.728C136.505 242.747 136.071 242.766 135.585 242.785C135.099 242.823 134.717 242.841 134.439 242.841C133.988 242.841 133.597 242.785 133.267 242.672C132.937 242.559 132.616 242.38 132.304 242.135C131.991 241.89 131.67 241.569 131.34 241.173C131.028 240.777 130.663 240.306 130.246 239.76C130.194 239.703 130.038 239.486 129.777 239.109C129.534 238.713 129.231 238.252 128.866 237.724C128.519 237.177 128.145 236.602 127.746 235.999C127.364 235.377 127.008 234.802 126.678 234.274H124.777C124.777 234.783 124.777 235.339 124.777 235.943C124.777 236.546 124.777 237.121 124.777 237.667C124.795 238.214 124.803 238.713 124.803 239.166C124.821 239.599 124.838 239.91 124.855 240.099C124.89 240.646 124.977 241.032 125.116 241.258C125.255 241.465 125.376 241.616 125.48 241.711C125.637 241.805 125.793 241.88 125.949 241.937C126.123 241.974 126.435 241.993 126.887 241.993L126.991 242.106L127.069 242.615L127.017 242.728ZM127.147 233.03C128.588 233.03 129.621 232.672 130.246 231.956C130.889 231.221 131.21 230.241 131.21 229.016C131.21 227.866 130.845 226.98 130.116 226.358C129.404 225.736 128.423 225.425 127.173 225.425H124.908C124.873 225.971 124.847 226.433 124.829 226.81C124.829 227.187 124.821 227.517 124.803 227.8C124.786 228.082 124.777 228.337 124.777 228.563C124.777 228.789 124.777 229.006 124.777 229.213V231.984C124.777 232.229 124.786 232.427 124.803 232.578C124.821 232.71 124.864 232.814 124.934 232.889C125.003 232.946 125.099 232.983 125.22 233.002C125.359 233.021 125.541 233.03 125.767 233.03H127.147Z" fill="#222222"/>
<path d="M146.992 242.728C146.871 242.728 146.68 242.719 146.419 242.7C146.159 242.681 145.881 242.662 145.586 242.644C145.291 242.625 145.013 242.606 144.752 242.587C144.492 242.568 144.301 242.559 144.179 242.559H142.695C142.574 242.559 142.383 242.568 142.122 242.587C141.862 242.606 141.584 242.625 141.289 242.644C141.011 242.662 140.742 242.681 140.481 242.7C140.221 242.719 140.03 242.728 139.909 242.728L139.856 242.615L139.935 242.106L140.065 241.993C140.343 241.993 140.655 241.984 141.002 241.965C141.35 241.927 141.593 241.842 141.732 241.711C141.87 241.579 142.018 241.409 142.174 241.202C142.33 240.994 142.426 240.627 142.461 240.099C142.478 239.967 142.487 239.816 142.487 239.647C142.504 239.458 142.513 239.232 142.513 238.968C142.53 238.704 142.539 238.384 142.539 238.007C142.539 237.63 142.539 237.158 142.539 236.593V230.853C142.539 229.628 142.53 228.544 142.513 227.602C142.495 226.641 142.478 225.915 142.461 225.425H142.174C141.306 225.425 140.594 225.434 140.039 225.453C139.483 225.453 139.032 225.472 138.685 225.51C138.355 225.528 138.103 225.557 137.929 225.594C137.773 225.632 137.66 225.679 137.591 225.736C137.209 225.962 136.974 226.452 136.888 227.206L136.783 227.319H136.184L136.367 224.096L136.471 223.841L136.627 223.757C136.766 223.813 137.07 223.87 137.539 223.926C138.007 223.964 138.52 223.992 139.075 224.011C139.631 224.03 140.16 224.049 140.664 224.068C141.185 224.068 141.558 224.068 141.784 224.068H145.065C145.291 224.068 145.655 224.068 146.159 224.068C146.68 224.049 147.218 224.03 147.773 224.011C148.329 223.992 148.841 223.964 149.31 223.926C149.779 223.87 150.082 223.813 150.221 223.757L150.378 223.841L150.482 224.096L150.69 227.319H150.065L149.961 227.206C149.874 226.452 149.64 225.962 149.258 225.736C149.188 225.679 149.067 225.632 148.893 225.594C148.737 225.557 148.485 225.528 148.138 225.51C147.808 225.472 147.365 225.453 146.81 225.453C146.254 225.434 145.551 225.425 144.7 225.425H144.414C144.397 225.971 144.379 226.688 144.362 227.574C144.362 228.459 144.362 229.543 144.362 230.825V236.027C144.362 236.706 144.362 237.262 144.362 237.696C144.362 238.11 144.362 238.459 144.362 238.742C144.379 239.024 144.388 239.27 144.388 239.477C144.405 239.665 144.423 239.873 144.44 240.099C144.475 240.627 144.57 240.994 144.726 241.202C144.883 241.409 145.03 241.579 145.169 241.711C145.308 241.842 145.551 241.927 145.898 241.965C146.246 241.984 146.558 241.993 146.836 241.993L146.966 242.106L147.044 242.615L146.992 242.728Z" fill="#222222"/>
<path d="M154.697 228.196C154.697 228.723 154.784 229.166 154.958 229.524C155.131 229.864 155.392 230.165 155.739 230.429C156.103 230.693 156.555 230.938 157.093 231.164C157.649 231.372 158.3 231.598 159.046 231.843C159.689 232.069 160.322 232.324 160.947 232.606C161.572 232.889 162.128 233.257 162.614 233.709C163.117 234.143 163.517 234.68 163.812 235.321C164.107 235.943 164.255 236.706 164.255 237.611C164.255 238.572 164.081 239.392 163.734 240.071C163.387 240.73 162.926 241.268 162.354 241.682C161.781 242.097 161.112 242.399 160.348 242.587C159.602 242.776 158.812 242.87 157.978 242.87C156.902 242.87 155.921 242.738 155.036 242.474C154.15 242.21 153.352 241.88 152.64 241.484L152.536 241.117L152.978 238.091H153.629L153.76 238.261C153.846 239.411 154.272 240.259 155.036 240.806C155.8 241.334 156.841 241.597 158.161 241.597C159.515 241.597 160.531 241.268 161.208 240.608C161.902 239.929 162.249 239.053 162.249 237.978C162.249 237.319 162.119 236.772 161.859 236.338C161.598 235.886 161.251 235.509 160.817 235.208C160.4 234.887 159.914 234.623 159.359 234.416C158.82 234.209 158.274 234.001 157.718 233.794C157.024 233.549 156.373 233.285 155.765 233.002C155.175 232.701 154.654 232.352 154.202 231.956C153.768 231.56 153.421 231.089 153.161 230.542C152.918 229.996 152.796 229.345 152.796 228.591C152.796 227.706 152.935 226.961 153.213 226.358C153.508 225.736 153.907 225.236 154.411 224.859C154.914 224.463 155.496 224.181 156.155 224.011C156.833 223.841 157.562 223.757 158.343 223.757C159.281 223.757 160.166 223.851 160.999 224.039C161.833 224.228 162.51 224.454 163.031 224.718L163.135 225.029L162.77 227.545H162.041L161.911 227.404C161.876 226.914 161.729 226.518 161.468 226.216C161.208 225.915 160.895 225.679 160.531 225.51C160.183 225.34 159.801 225.227 159.385 225.17C158.985 225.114 158.63 225.085 158.317 225.085C157.189 225.085 156.303 225.359 155.661 225.905C155.018 226.433 154.697 227.197 154.697 228.196Z" fill="#222222"/>
</svg>
