<svg width="250" height="250" viewBox="0 0 250 250" fill="none" xmlns="http://www.w3.org/2000/svg">
<path d="M47.2173 51.0198V66.8487C47.2173 71.3128 46.2164 75.1923 43.889 77.6723C41.5616 80.1142 38.0602 81.0646 33.7106 81.0646C29.0175 81.0646 25.6409 78.1007 23.5805 74.9338C21.5202 78.1007 18.1435 81.0646 13.4505 81.0646C9.10088 81.0646 5.65671 80.1142 3.32928 77.6723C1.00186 75.1923 0.00102974 71.3128 0.00102974 66.8487V51.0198H7.155V66.2192C7.155 69.1189 7.65101 70.8368 8.64303 72.2104C9.6732 73.5839 11.2948 74.2707 13.5077 74.2707C15.7207 74.2707 17.3613 73.5839 18.4297 72.2104C19.498 70.7987 20.0322 69.0808 20.0322 66.2192V51.0198H27.1861V66.2192C27.1861 69.0808 27.7203 70.7911 28.7886 72.2029C29.8569 73.5764 31.4976 74.2632 33.7106 74.2632C35.9235 74.2632 37.526 73.5764 38.518 72.2029C39.5482 70.8293 40.0633 69.1189 40.0633 66.2192V51.0198H47.2173Z" fill="#5C5C61"/>
<path d="M163.849 51.0219V66.8508C163.849 71.3149 162.848 75.1943 160.521 77.6744C158.193 80.1163 154.692 81.0666 150.342 81.0666C145.649 81.0666 142.273 78.1027 140.212 74.9359C138.152 78.1027 134.775 81.0666 130.082 81.0666C125.733 81.0666 122.288 80.1163 119.961 77.6744C117.634 75.1943 116.633 71.3149 116.633 66.8508V51.0219H123.787V66.2212C123.787 69.121 124.283 70.8389 125.275 72.2124C126.305 73.586 127.927 74.2728 130.14 74.2728C132.352 74.2728 133.993 73.586 135.061 72.2124C136.13 70.8007 136.664 69.0828 136.664 66.2212V51.0219H143.818V66.2212C143.818 69.0828 144.352 70.7932 145.42 72.2049C146.489 73.5785 148.129 74.2653 150.342 74.2653C152.555 74.2653 154.158 73.5785 155.15 72.2049C156.18 70.8314 156.695 69.121 156.695 66.2212V51.0219H163.849Z" fill="#5C5C61"/>
<path d="M85.1154 50.9201V80.7633H77.8419V76.1481C76.6869 77.5638 75.5322 78.9206 73.8345 79.7304C72.1368 80.5401 70.6223 81.1545 68.5731 81.1545C65.667 81.1545 63.059 80.5211 60.749 79.2544C58.4763 77.9876 56.688 76.1993 55.384 73.8893C54.1172 71.5793 53.4838 68.8968 53.4838 65.8417C53.4838 62.7866 54.1172 60.1227 55.384 57.85C56.688 55.54 58.4763 53.7516 60.749 52.4849C63.059 51.2181 65.667 50.5847 68.5731 50.5847C70.5105 50.5847 72.1634 51.3217 73.7655 51.9924C75.3675 52.663 76.5985 54.2738 77.7907 55.5778V50.9201H85.1154ZM69.3555 75.1747C71.9263 75.1747 73.7883 74.3178 75.4649 72.6039C77.1415 70.8901 77.9798 68.636 77.9798 65.8417C77.9798 63.0474 77.1415 60.9522 75.4649 59.2383C73.7883 57.5245 71.919 56.8683 69.3482 56.8683C66.7774 56.8683 64.9601 57.5245 63.2835 59.2383C61.6442 60.9522 60.8245 63.0474 60.8245 65.8417C60.8245 68.636 61.6442 70.8901 63.2835 72.6039C64.9601 74.3178 66.7847 75.1747 69.3555 75.1747Z" fill="#5C5C61"/>
<path d="M101.418 56.6595C103.197 53.4232 106.446 50.5572 111.739 50.6614V57.6165C111.137 57.6165 110.614 57.6165 110.13 57.6165C107.41 57.6165 105.565 58.3757 104.037 59.9778C102.51 61.5426 101.456 63.3848 101.456 66.3654V80.8399H94.2503V50.9967H101.418V56.6595Z" fill="#5C5C61"/>
<path d="M172.392 50.8288H179.539V80.672H172.392V50.8288Z" fill="#5C5C61"/>
<path d="M180.077 42.3691C180.077 44.782 178.204 46.7381 175.894 46.7381C173.584 46.7381 171.711 44.782 171.711 42.3691C171.711 39.9561 173.584 38 175.894 38C178.204 38 180.077 39.9561 180.077 42.3691Z" fill="#5C5C61"/>
<path d="M202.522 81.0178C199.429 81.0178 196.698 80.4801 194.239 79.1761C191.78 77.8721 189.862 76.0651 188.483 73.7551C187.105 71.4079 186.415 68.7626 186.415 65.8193C186.415 62.8759 187.105 60.2493 188.483 57.9393C189.862 55.6294 191.762 53.8224 194.184 52.5184C196.643 51.2144 199.431 50.6656 202.561 50.6656C205.504 50.6656 207.913 51.4215 210.111 52.6137C211.536 53.6309 212.189 53.6966 214.211 56.1268L209.759 60.3283C208.485 58.883 207.654 58.549 206.702 57.9393C205.407 57.3527 203.967 57.151 202.514 56.9874C199.906 56.9874 198.036 57.3432 196.322 59.0571C194.608 60.7336 193.751 62.9877 193.751 65.8193C193.751 68.6509 194.589 70.9236 196.266 72.6374C197.98 74.314 199.865 74.8593 202.511 74.8593C204.038 74.8593 205.435 74.5239 206.702 73.8533C207.998 73.1258 209.134 72.6066 210.005 71.2563L214.571 75.0241C212.994 77.3308 211.826 77.9577 209.95 79.1271C207.751 80.3193 205.428 81.0178 202.522 81.0178Z" fill="#5C5C61"/>
<path d="M232.749 67.7152L228.057 72.8709V80.7509H221.071V39.2833H228.057V63.5941L240.516 50.9076H248.939L237.821 62.4619L249.463 80.7509H240.968L232.749 67.7152Z" fill="#5C5C61"/>
<path d="M25.5675 148.785H114.548C116.295 148.785 117.711 147.369 117.711 145.622L117.711 100.813C117.711 99.0662 116.295 97.6499 114.548 97.6499L25.5675 97.6499C23.8024 97.6499 22.0791 97.8288 20.4148 98.1694C8.76408 100.553 0 110.862 0 123.217C0 137.337 11.4461 148.784 25.5659 148.785H25.5675Z" fill="#5C5C61"/>
<path d="M3.2921 159.854H92.2722C106.393 159.854 117.84 171.301 117.84 185.422C117.84 199.542 106.393 210.989 92.2722 210.989H3.29209C1.54501 210.989 0.128718 209.573 0.128718 207.826L0.128726 163.017C0.128726 161.27 1.54502 159.854 3.2921 159.854Z" fill="#5C5C61"/>
<path d="M183.018 100.8V153.163C183.018 157.539 186.566 161.087 190.942 161.087C195.318 161.087 198.865 157.539 198.865 153.163V100.8C198.865 99.0533 200.281 97.6371 202.028 97.6371H246.837C248.584 97.6371 250 99.0533 250 100.8V153.163C250 185.78 223.559 212.222 190.942 212.222C158.325 212.222 131.883 185.78 131.883 153.163V100.8C131.883 99.0533 133.3 97.6371 135.047 97.6371H179.855C181.602 97.6371 183.018 99.0533 183.018 100.8Z" fill="#5C5C61"/>
</svg>
