<svg width="217" height="250" viewBox="0 0 217 250" fill="none" xmlns="http://www.w3.org/2000/svg">
<path d="M108.208 59.7323C103.772 59.7323 99.4356 58.42 95.7472 55.9613C92.0589 53.5026 89.1841 50.0079 87.4866 45.9192C85.789 41.8305 85.3449 37.3315 86.2103 32.9909C87.0757 28.6504 89.2118 24.6634 92.3485 21.534C95.4852 18.4047 99.4815 16.2736 103.832 15.4102C108.183 14.5468 112.693 14.9899 116.791 16.6835C120.889 18.3771 124.392 21.2451 126.856 24.9248C129.321 28.6045 130.636 32.9307 130.636 37.3563C130.631 43.2892 128.267 48.9777 124.062 53.1729C119.856 57.3681 114.155 59.7272 108.208 59.7323V59.7323Z" fill="#222222"/>
<path d="M69.243 98.7987C81.6299 98.7987 91.6715 88.7806 91.6715 76.4227C91.6715 64.0647 81.6299 54.0466 69.243 54.0466C56.8561 54.0466 46.8145 64.0647 46.8145 76.4227C46.8145 88.7806 56.8561 98.7987 69.243 98.7987Z" fill="#222222"/>
<path d="M108.208 139.715C120.595 139.715 130.636 129.697 130.636 117.339C130.636 104.981 120.595 94.9634 108.208 94.9634C95.8209 94.9634 85.7793 104.981 85.7793 117.339C85.7793 129.697 95.8209 139.715 108.208 139.715Z" fill="#222222"/>
<path d="M147.579 178.994C159.966 178.994 170.007 168.976 170.007 156.618C170.007 144.26 159.966 134.242 147.579 134.242C135.192 134.242 125.15 144.26 125.15 156.618C125.15 168.976 135.192 178.994 147.579 178.994Z" fill="#222222"/>
<path d="M27.1379 224.289C27.8491 225.015 28.7041 225.584 29.6482 225.961C30.5923 226.338 31.6048 226.514 32.6211 226.478C33.5976 226.514 34.5703 226.338 35.4725 225.963C36.3748 225.589 37.1852 225.024 37.8483 224.308C39.2476 222.701 39.9683 220.615 39.8588 218.489V195.943H49.8929V218.489C49.9465 221.533 49.2031 224.538 47.7362 227.208C46.3475 229.692 44.2473 231.705 41.7047 232.99C38.866 234.389 35.7312 235.083 32.5662 235.015C29.3659 235.084 26.1953 234.39 23.318 232.99C20.7458 231.707 18.6097 229.696 17.177 227.208C15.6938 224.545 14.9493 221.535 15.0203 218.489V195.943H25.0544V218.489C24.9976 219.545 25.1526 220.603 25.5104 221.599C25.8682 222.595 26.4215 223.51 27.1379 224.289V224.289Z" fill="#222222"/>
<path d="M109.275 195.943H119.583L106.588 234.249H96.28L88.9692 208.146L81.6584 234.249H71.277L58.3369 195.943H69.1386L76.7053 223.961L84.2903 195.943H94.1051L101.781 223.961L109.275 195.943Z" fill="#222222"/>
<path d="M151.44 205.21C149.884 204.326 148.13 203.849 146.341 203.823C144.474 203.8 142.638 204.3 141.04 205.264C139.485 206.245 138.223 207.625 137.385 209.259C136.484 211.012 136.014 212.953 136.014 214.923C136.014 216.893 136.484 218.834 137.385 220.587C138.223 222.221 139.485 223.6 141.04 224.581C142.636 225.552 144.472 226.057 146.341 226.041C148.054 226.007 149.739 225.596 151.275 224.837C152.998 224.031 154.559 222.918 155.881 221.553L161.748 227.846C159.633 230.052 157.106 231.824 154.309 233.063C151.345 234.456 148.089 235.121 144.815 235.004C141.54 234.886 138.341 233.99 135.484 232.388C132.442 230.703 129.915 228.225 128.173 225.22C126.4 222.123 125.491 218.608 125.541 215.041C125.487 211.542 126.396 208.095 128.168 205.075C129.94 202.055 132.509 199.578 135.594 197.913C138.491 196.372 141.699 195.5 144.979 195.361C148.259 195.222 151.529 195.82 154.547 197.111C157.215 198.224 159.623 199.876 161.62 201.963L155.808 208.967C154.622 207.433 153.136 206.155 151.44 205.21V205.21Z" fill="#222222"/>
<path d="M191.43 204.535C189.558 203.853 187.591 203.465 185.6 203.386C184.575 203.331 183.556 203.565 182.657 204.061C182.317 204.269 182.038 204.566 181.852 204.919C181.665 205.272 181.577 205.668 181.597 206.067C181.59 206.463 181.67 206.857 181.831 207.219C181.992 207.581 182.23 207.904 182.529 208.165C183.203 208.762 183.985 209.226 184.832 209.533C185.746 209.879 187.099 210.335 188.89 210.883C191.138 211.502 193.342 212.27 195.488 213.181C197.252 213.963 198.791 215.173 199.966 216.701C201.262 218.509 201.906 220.701 201.793 222.921C201.86 225.262 201.146 227.559 199.765 229.452C198.359 231.302 196.459 232.719 194.281 233.538C191.77 234.477 189.105 234.941 186.422 234.906C183.176 234.891 179.955 234.324 176.9 233.227C173.916 232.216 171.141 230.671 168.712 228.667L172.605 220.842C174.643 222.621 176.966 224.045 179.477 225.056C181.7 226.053 184.096 226.611 186.532 226.697C187.762 226.762 188.985 226.478 190.059 225.876C190.472 225.628 190.811 225.274 191.039 224.85C191.267 224.426 191.377 223.949 191.357 223.469C191.365 223.056 191.282 222.646 191.115 222.268C190.947 221.89 190.7 221.553 190.388 221.28C189.686 220.656 188.866 220.179 187.976 219.875C187.007 219.529 185.655 219.127 183.9 218.653C181.677 218.061 179.497 217.318 177.375 216.428C175.646 215.674 174.127 214.509 172.952 213.035C171.657 211.296 171.011 209.161 171.124 206.997C171.061 204.778 171.701 202.595 172.952 200.759C174.309 198.894 176.174 197.457 178.326 196.618C180.902 195.608 183.655 195.118 186.422 195.177C189.206 195.174 191.975 195.567 194.647 196.345C197.163 197.048 199.564 198.111 201.775 199.5L197.992 207.49C195.916 206.274 193.717 205.284 191.43 204.535V204.535Z" fill="#222222"/>
</svg>
