<svg width="500" height="500" viewBox="0 0 500 500" fill="none" xmlns="http://www.w3.org/2000/svg">
<path d="M247.809 477.401C247.344 477.405 246.882 477.321 246.448 477.153C160.879 443.787 120.359 384.827 101.448 341.262C80.9529 294.035 80.7301 255.272 80.7301 253.639V7.42577C80.7301 6.44105 81.1213 5.49667 81.8176 4.80037C82.5139 4.10407 83.4583 3.7129 84.443 3.7129C84.9927 3.71196 85.5351 3.83909 86.0271 4.08418L249.567 82.1287L409.542 4.08418C410.108 3.81061 410.734 3.68527 411.362 3.7199C411.99 3.75454 412.599 3.94802 413.131 4.2822C413.668 4.61227 414.112 5.07454 414.42 5.62489C414.727 6.17523 414.889 6.79526 414.888 7.42577V253.639C414.888 255.272 414.641 294.035 394.146 341.262C375.235 384.827 334.74 443.787 249.146 477.153C248.72 477.321 248.267 477.405 247.809 477.401Z" fill="#262A2D"/>
<path fill-rule="evenodd" clip-rule="evenodd" d="M162.795 67.6221C163.909 66.5084 165.604 66.2186 167.025 66.899L171.158 68.8792C172.245 69.3996 173.011 70.4147 173.214 71.602C173.417 72.7894 173.032 74.0014 172.18 74.8531L106.338 140.695C105.276 141.757 103.679 142.074 102.292 141.5C100.905 140.925 99.9999 139.571 99.9999 138.069V131.955C99.9999 130.971 100.391 130.026 101.087 129.33L162.795 67.6221Z" fill="#3C4447"/>
<path fill-rule="evenodd" clip-rule="evenodd" d="M384.006 291.273C385.458 292.095 386.184 293.784 385.781 295.403C382.446 308.787 377.963 321.859 372.38 334.473C348.11 389.277 307.855 429.639 249.266 454.386C248.345 454.775 247.305 454.776 246.382 454.388C244.722 453.69 242.7 452.905 240.583 452.084C237.082 450.727 233.322 449.268 230.51 447.933C229.421 447.415 228.65 446.4 228.445 445.211C228.24 444.022 228.625 442.807 229.479 441.954L379.553 291.88C380.732 290.7 382.554 290.452 384.006 291.273Z" fill="#3C4447"/>
<path fill-rule="evenodd" clip-rule="evenodd" d="M390.334 37.9651C391.419 38.6435 392.079 39.8335 392.079 41.1139V85.9406C392.079 86.9252 391.688 87.8696 390.992 88.5659L131.734 347.848C130.897 348.686 129.71 349.073 128.539 348.892C127.369 348.71 126.355 347.981 125.811 346.929C100.586 298.161 99.9999 254.731 99.9999 253.639V181.238C99.9999 180.253 100.391 179.309 101.087 178.612L196.162 83.538C197.274 82.4254 198.967 82.1349 200.387 82.813L247.904 105.506L386.738 37.7769C387.889 37.2155 389.248 37.2867 390.334 37.9651Z" fill="#3C4447"/>
<path fill-rule="evenodd" clip-rule="evenodd" d="M411.188 5.425e-06C410.057 0.00134465 408.941 0.255036 407.921 0.74258L249.554 77.896L87.6237 0.717827C86.6241 0.249473 85.5345 0.00451884 84.4306 5.425e-06C83.0295 -0.00168788 81.6565 0.393051 80.4702 1.13862C79.4082 1.80819 78.5333 2.7361 77.9273 3.8356C77.3213 4.9351 77.0039 6.17029 77.0049 7.42575V253.639C77.0049 255.297 77.2277 294.827 98.0197 342.747C117.228 386.98 158.317 446.708 245.099 480.644C246.837 481.304 248.757 481.304 250.495 480.644C337.277 446.708 378.366 386.955 397.574 342.747C418.366 294.851 418.614 255.322 418.614 253.639V7.42575C418.608 6.17217 418.285 4.94049 417.675 3.84547C417.064 2.75046 416.187 1.82776 415.124 1.16337C413.945 0.422278 412.581 0.0277211 411.188 0.0247585V5.425e-06ZM411.188 253.639V7.42575L249.579 86.2376L84.4554 7.42575V253.639C84.4554 253.639 84.4554 410 247.822 473.688C411.188 410 411.188 253.639 411.188 253.639Z" fill="#3C4447"/>
<path fill-rule="evenodd" clip-rule="evenodd" d="M392.069 164.043V237.911L199.771 430.208L197.22 428.428C184.704 419.689 173.097 409.717 162.572 398.661L160.075 396.037L392.069 164.043Z" fill="#3C4447"/>
<path d="M247.822 184.456C242.138 184.456 236.582 182.77 231.856 179.612C227.13 176.455 223.447 171.967 221.272 166.715C219.097 161.464 218.528 155.686 219.636 150.112C220.745 144.537 223.482 139.416 227.501 135.397C231.52 131.378 236.641 128.641 242.215 127.533C247.79 126.424 253.568 126.993 258.819 129.168C264.07 131.343 268.559 135.026 271.716 139.752C274.874 144.478 276.56 150.034 276.56 155.718C276.553 163.338 273.523 170.643 268.135 176.031C262.747 181.419 255.442 184.449 247.822 184.456Z" fill="#FDD835"/>
<path d="M197.896 234.629C213.767 234.629 226.634 221.762 226.634 205.891C226.634 190.02 213.767 177.153 197.896 177.153C182.025 177.153 169.158 190.02 169.158 205.891C169.158 221.762 182.025 234.629 197.896 234.629Z" fill="#FDD835"/>
<path d="M247.822 287.178C263.693 287.178 276.559 274.312 276.559 258.441C276.559 242.569 263.693 229.703 247.822 229.703C231.951 229.703 219.084 242.569 219.084 258.441C219.084 274.312 231.951 287.178 247.822 287.178Z" fill="#3D53FF"/>
<path d="M298.267 337.624C314.139 337.624 327.005 324.758 327.005 308.886C327.005 293.015 314.139 280.149 298.267 280.149C282.396 280.149 269.53 293.015 269.53 308.886C269.53 324.758 282.396 337.624 298.267 337.624Z" fill="#3D53FF"/>
<path d="M452.624 368.168L457.871 357.054H247.822H40.2228L45.4703 368.168H3.71289L42.401 453.837H98.8862L93.1931 441.51H247.822H404.926L399.208 453.837H455.693L494.381 368.168H452.624Z" fill="#3D53FF"/>
<path fill-rule="evenodd" clip-rule="evenodd" d="M37.0866 355.067C37.7674 353.993 38.9509 353.342 40.2228 353.342H457.871C459.143 353.342 460.327 353.993 461.007 355.067C461.688 356.141 461.772 357.489 461.229 358.64L458.483 364.455H494.381C495.642 364.455 496.817 365.095 497.5 366.154C498.184 367.214 498.284 368.547 497.765 369.696L459.077 455.365C458.476 456.695 457.152 457.549 455.693 457.549H399.208C397.941 457.549 396.761 456.903 396.079 455.835C395.396 454.766 395.306 453.424 395.84 452.274L399.111 445.223H98.9976L102.257 452.28C102.788 453.429 102.696 454.77 102.014 455.837C101.332 456.904 100.153 457.549 98.8862 457.549H42.401C40.9417 457.549 39.6178 456.695 39.0172 455.365L0.329067 369.696C-0.189837 368.547 -0.0902023 367.214 0.59365 366.154C1.2775 365.095 2.45212 364.455 3.71288 364.455H39.6113L36.8653 358.64C36.3223 357.49 36.4058 356.141 37.0866 355.067ZM46.0818 360.767L48.8277 366.583C49.3708 367.733 49.2873 369.081 48.6065 370.156C47.9257 371.23 46.7422 371.881 45.4703 371.881H9.46356L44.7982 450.124H93.0817L89.8223 443.067C89.2914 441.917 89.383 440.576 90.0653 439.509C90.7477 438.442 91.9267 437.797 93.1931 437.797H404.926C406.193 437.797 407.373 438.444 408.055 439.512C408.737 440.58 408.827 441.922 408.294 443.072L405.023 450.124H453.296L488.631 371.881H452.624C451.352 371.881 450.168 371.23 449.488 370.156C448.807 369.081 448.723 367.733 449.266 366.583L452.012 360.767H46.0818Z" fill="#1B42BF"/>
<path d="M138.936 411.361C139.899 412.346 141.057 413.118 142.335 413.63C143.614 414.141 144.985 414.38 146.361 414.332C147.684 414.38 149.001 414.142 150.223 413.633C151.445 413.125 152.543 412.358 153.441 411.386C155.336 409.206 156.312 406.375 156.163 403.49V372.896H169.752V403.49C169.825 407.621 168.818 411.699 166.832 415.322C164.951 418.692 162.107 421.425 158.663 423.168C154.819 425.066 150.573 426.009 146.287 425.916C141.953 426.01 137.659 425.068 133.762 423.168C130.279 421.428 127.386 418.698 125.446 415.322C123.437 411.708 122.429 407.624 122.525 403.49V372.896H136.114V403.49C136.037 404.924 136.247 406.359 136.731 407.71C137.216 409.062 137.965 410.303 138.936 411.361Z" fill="#E4E8FF"/>
<path d="M250.173 372.896H264.134L246.535 424.876H232.574L222.673 389.456L212.772 424.876H198.713L181.188 372.896H195.817L206.064 410.916L216.337 372.896H229.629L240.025 410.916L250.173 372.896Z" fill="#E4E8FF"/>
<path d="M307.277 385.47C305.171 384.271 302.795 383.624 300.371 383.589C297.843 383.558 295.356 384.235 293.193 385.545C291.087 386.876 289.378 388.748 288.243 390.965C287.022 393.343 286.385 395.978 286.385 398.651C286.385 401.324 287.022 403.959 288.243 406.337C289.378 408.554 291.087 410.426 293.193 411.758C295.354 413.074 297.841 413.76 300.371 413.738C302.692 413.692 304.974 413.134 307.055 412.104C309.387 411.01 311.501 409.501 313.292 407.649L321.238 416.188C318.373 419.182 314.951 421.586 311.163 423.267C307.148 425.157 302.74 426.06 298.305 425.901C293.87 425.742 289.538 424.525 285.668 422.352C281.549 420.065 278.127 416.702 275.767 412.624C273.366 408.421 272.135 403.652 272.203 398.812C272.13 394.063 273.36 389.385 275.76 385.287C278.161 381.189 281.639 377.828 285.817 375.569C289.741 373.478 294.085 372.295 298.527 372.106C302.97 371.918 307.398 372.729 311.485 374.48C315.099 375.99 318.36 378.232 321.064 381.064L313.193 390.569C311.586 388.487 309.574 386.753 307.277 385.47Z" fill="#E4E8FF"/>
<path d="M361.436 384.555C358.9 383.629 356.236 383.103 353.54 382.995C352.152 382.921 350.771 383.239 349.554 383.911C349.093 384.194 348.716 384.597 348.464 385.076C348.211 385.555 348.092 386.093 348.119 386.634C348.109 387.172 348.217 387.705 348.435 388.197C348.653 388.689 348.976 389.127 349.381 389.48C350.294 390.291 351.352 390.921 352.5 391.337C353.738 391.807 355.569 392.426 357.995 393.168C361.039 394.009 364.025 395.051 366.931 396.287C369.319 397.348 371.404 398.99 372.995 401.064C374.751 403.517 375.623 406.493 375.47 409.505C375.56 412.682 374.594 415.798 372.723 418.366C370.82 420.878 368.246 422.8 365.297 423.911C361.895 425.186 358.286 425.816 354.653 425.767C350.256 425.748 345.895 424.978 341.757 423.49C337.716 422.117 333.959 420.02 330.668 417.302L335.941 406.683C338.701 409.097 341.847 411.03 345.248 412.401C348.258 413.755 351.503 414.512 354.802 414.629C356.468 414.717 358.124 414.331 359.579 413.515C360.138 413.178 360.596 412.697 360.906 412.122C361.215 411.547 361.364 410.9 361.337 410.248C361.347 409.687 361.235 409.131 361.008 408.618C360.782 408.105 360.446 407.647 360.025 407.277C359.073 406.431 357.962 405.783 356.757 405.371C355.446 404.901 353.614 404.357 351.238 403.713C348.226 402.91 345.274 401.901 342.401 400.693C340.059 399.67 338.002 398.089 336.411 396.089C334.657 393.73 333.781 390.832 333.936 387.896C333.85 384.884 334.716 381.922 336.411 379.431C338.249 376.9 340.774 374.95 343.688 373.812C347.178 372.441 350.905 371.777 354.653 371.857C358.423 371.852 362.174 372.385 365.792 373.441C369.2 374.395 372.451 375.837 375.446 377.723L370.322 388.564C367.511 386.915 364.532 385.571 361.436 384.555Z" fill="#E4E8FF"/>
</svg>
