<svg id="wasd-keys" viewBox="0 0 740 564" fill="none" xmlns="http://www.w3.org/2000/svg">
<g filter="url(#filter0_d_3007_46712)">
<path fill-rule="evenodd" clip-rule="evenodd" d="M432.339 0.419434H232.434C229.499 0.419434 226.685 1.58245 224.61 3.65262C222.535 5.7228 221.369 8.53056 221.369 11.4582C221.369 14.3859 222.535 17.1937 224.61 19.2638C226.685 21.334 229.499 22.497 232.434 22.497H320.952C323.887 22.497 326.701 23.66 328.776 25.7302C330.851 27.8004 332.017 30.6082 332.017 33.5358C332.017 36.4635 330.851 39.2713 328.776 41.3414C326.701 43.4116 323.887 44.5746 320.952 44.5746H210.305C207.37 44.5746 204.556 45.7376 202.481 47.8078C200.406 49.878 199.24 52.6858 199.24 55.6134C199.24 58.5411 200.406 61.3489 202.481 63.419C204.556 65.4892 207.37 66.6522 210.305 66.6522H272.267C275.202 66.6522 278.016 67.8152 280.091 69.8854C282.166 71.9556 283.332 74.7633 283.332 77.691C283.332 80.6187 282.166 83.4265 280.091 85.4966C278.016 87.5668 275.202 88.7298 272.267 88.7298H240.179C236.951 88.7298 233.856 90.0091 231.573 92.2863C229.29 94.5635 228.008 97.652 228.008 100.872C228.008 104.093 229.29 107.181 231.573 109.459C233.856 111.736 236.951 113.015 240.179 113.015H283.332C286.266 113.015 289.081 114.178 291.156 116.248C293.231 118.319 294.397 121.126 294.397 124.054C294.397 126.982 293.231 129.789 291.156 131.86C289.081 133.93 286.266 135.093 283.332 135.093H192.601C189.666 135.093 186.852 136.256 184.777 138.326C182.702 140.396 181.536 143.204 181.536 146.132C181.536 149.059 182.702 151.867 184.777 153.937C186.852 156.007 189.666 157.17 192.601 157.17H309.887C312.822 157.17 315.636 158.333 317.711 160.404C319.786 162.474 320.952 165.281 320.952 168.209C320.952 171.137 319.786 173.945 317.711 176.015C315.636 178.085 312.822 179.248 309.887 179.248H239.073C236.138 179.248 233.324 180.411 231.249 182.481C229.174 184.551 228.008 187.359 228.008 190.287C228.008 193.214 229.174 196.022 231.249 198.092C233.324 200.163 236.138 201.326 239.073 201.326H432.339C438.593 201.307 444.586 198.82 449.009 194.408C453.431 189.996 455.924 184.017 455.942 177.778V23.9674C455.924 17.7277 453.431 11.7488 449.009 7.33663C444.586 2.92448 438.593 0.437681 432.339 0.419434ZM370.369 133.402H386.722L410.499 63.3384H394.146L379.096 116.787L363.747 63.3384H348.196L333.047 116.787L317.797 63.3384H300.742L324.419 133.402H340.672L355.62 82.8568L370.369 133.402Z" fill="white"/>
<path d="M268.581 223.403H57.6114C54.6768 223.403 51.8624 224.566 49.7874 226.636C47.7124 228.706 46.5466 231.514 46.5466 234.442C46.5466 237.37 47.7124 240.177 49.7874 242.247C51.8624 244.318 54.6768 245.481 57.6114 245.481H157.194C160.129 245.481 162.943 246.644 165.018 248.714C167.093 250.784 168.259 253.592 168.259 256.519C168.259 259.447 167.093 262.255 165.018 264.325C162.943 266.395 160.129 267.558 157.194 267.558H17.7782C16.3235 267.556 14.8825 267.839 13.5378 268.393C12.193 268.946 10.9709 269.759 9.94126 270.784C8.91167 271.81 8.09485 273.027 7.53754 274.368C6.98022 275.709 6.69336 277.146 6.69336 278.597C6.69336 280.048 6.98022 281.485 7.53754 282.826C8.09485 284.167 8.91167 285.384 9.94126 286.41C10.9709 287.435 12.193 288.248 13.5378 288.801C14.8825 289.355 16.3235 289.638 17.7782 289.636H139.491C142.425 289.636 145.24 290.799 147.315 292.869C149.39 294.939 150.555 297.747 150.555 300.675C150.555 303.602 149.39 306.41 147.315 308.48C145.24 310.55 142.425 311.713 139.491 311.713H78.6344C75.41 311.719 72.3196 313.001 70.0416 315.277C67.7637 317.554 66.4842 320.639 66.4842 323.856C66.4842 327.073 67.7637 330.158 70.0416 332.435C72.3196 334.711 75.41 335.993 78.6344 335.999H115.148C118.083 335.999 120.897 337.162 122.972 339.232C125.047 341.302 126.213 344.11 126.213 347.038C126.213 349.965 125.047 352.773 122.972 354.843C120.897 356.913 118.083 358.076 115.148 358.076H50.9725C48.038 358.076 45.2236 359.239 43.1485 361.31C41.0735 363.38 39.9077 366.188 39.9077 369.115C39.9077 372.043 41.0735 374.851 43.1485 376.921C45.2236 378.991 48.038 380.154 50.9725 380.154H130.639C133.573 380.154 136.388 381.317 138.463 383.387C140.538 385.457 141.704 388.265 141.704 391.193C141.704 394.12 140.538 396.928 138.463 398.998C136.388 401.069 133.573 402.232 130.639 402.232H68.6761C65.7416 402.232 62.9272 403.395 60.8522 405.465C58.7771 407.535 57.6114 410.343 57.6114 413.27C57.6114 416.198 58.7771 419.006 60.8522 421.076C62.9272 423.146 65.7416 424.309 68.6761 424.309H268.581C274.835 424.291 280.828 421.804 285.251 417.392C289.673 412.98 292.166 407.001 292.184 400.761V246.951C292.166 240.711 289.673 234.732 285.251 230.32C280.828 225.908 274.835 223.421 268.581 223.403ZM213.383 356.386L207.865 342.773H175.359L169.842 356.386H153.488L183.987 286.322H200.341L230.338 356.386H213.383Z" fill="white"/>
<path d="M202.757 330.066H180.586L191.721 302.84L202.757 330.066Z" fill="white"/>
<path d="M492.098 223.406H337.926C331.671 223.424 325.678 225.911 321.256 230.323C316.833 234.736 314.341 240.715 314.322 246.954V400.764C314.341 407.004 316.833 412.983 321.256 417.395C325.678 421.807 331.671 424.294 337.926 424.312H492.097C498.352 424.294 504.345 421.807 508.767 417.395C513.19 412.983 515.682 407.004 515.701 400.764V246.954C515.682 240.715 513.19 234.736 508.767 230.323C504.345 225.911 498.352 223.425 492.098 223.406ZM440.361 347.431C437.866 350.758 434.474 353.31 430.58 354.787C426.07 356.521 421.267 357.37 416.434 357.29C410.714 357.285 405.041 356.268 399.677 354.287C394.465 352.443 389.637 349.661 385.432 346.079L391.752 333.169C395.363 336.413 399.503 339.019 403.992 340.874C407.971 342.668 412.268 343.655 416.633 343.777C419.312 343.926 421.977 343.301 424.309 341.976C425.076 341.455 425.719 340.77 426.191 339.972C426.663 339.174 426.953 338.282 427.039 337.359C427.125 336.436 427.006 335.506 426.69 334.634C426.375 333.763 425.87 332.972 425.212 332.317C423.841 331.07 422.239 330.101 420.497 329.465C418.59 328.732 415.965 327.898 412.622 326.964C408.603 325.903 404.663 324.565 400.831 322.958C397.746 321.594 395.043 319.497 392.957 316.852C390.618 313.709 389.448 309.852 389.646 305.943C389.568 301.987 390.764 298.111 393.056 294.882C395.478 291.598 398.783 289.066 402.588 287.578C407.119 285.791 411.962 284.924 416.834 285.025C421.66 285.026 426.461 285.734 431.082 287.125C435.473 288.397 439.661 290.284 443.521 292.731L437.401 305.844C433.794 303.643 429.937 301.878 425.912 300.587C422.571 299.415 419.07 298.757 415.53 298.638C413.259 298.523 411 299.043 409.008 300.139C408.245 300.586 407.618 301.232 407.194 302.008C406.77 302.783 406.565 303.659 406.601 304.541C406.579 305.715 406.892 306.871 407.506 307.873C408.119 308.875 409.006 309.682 410.063 310.199C413.469 311.926 417.051 313.285 420.747 314.252C424.801 315.381 428.773 316.786 432.635 318.456C435.771 319.876 438.509 322.041 440.612 324.76C442.95 327.98 444.118 331.899 443.923 335.87C444.026 340.008 442.776 344.066 440.361 347.431ZM648.318 302.39C645.034 300.529 641.311 299.579 637.534 299.639H623.889V343.078H638.234C641.916 343.13 645.541 342.178 648.72 340.325C651.816 338.503 654.336 335.85 655.994 332.669C657.778 329.204 658.674 325.352 658.601 321.457C658.664 317.514 657.715 313.621 655.843 310.147C654.103 306.916 651.498 304.23 648.318 302.39Z" fill="white"/>
<path d="M715.606 223.406H561.434C555.18 223.424 549.187 225.911 544.765 230.323C540.342 234.736 537.849 240.715 537.831 246.954V400.764C537.849 407.004 540.342 412.983 544.765 417.395C549.187 421.807 555.18 424.294 561.434 424.312H715.606C721.861 424.294 727.854 421.807 732.276 417.395C736.699 412.983 739.191 407.004 739.21 400.764V246.954C739.191 240.715 736.699 234.736 732.276 230.323C727.854 225.911 721.861 223.424 715.606 223.406V223.406ZM669.99 339.525C666.816 344.826 662.208 349.127 656.695 351.935C650.67 354.985 643.988 356.514 637.233 356.389H608.036V286.325H637.833C644.492 286.208 651.076 287.739 656.998 290.78C662.454 293.594 666.994 297.899 670.09 303.192C673.257 308.717 674.869 314.994 674.753 321.358C674.866 327.735 673.218 334.02 669.99 339.525V339.525Z" fill="white"/>
<path d="M42.6409 478.808C40.2286 478.808 37.8908 478.466 35.6274 477.781C33.3939 477.096 31.6219 476.187 30.3115 475.056L32.3218 470.544C33.6023 471.556 35.1658 472.39 37.0123 473.045C38.8885 473.671 40.7647 473.984 42.6409 473.984C44.9638 473.984 46.6911 473.611 47.8227 472.867C48.9842 472.122 49.5649 471.139 49.5649 469.918C49.5649 469.025 49.2373 468.295 48.5821 467.73C47.9567 467.134 47.1527 466.672 46.1699 466.345C45.1871 466.017 43.847 465.645 42.1495 465.228C39.767 464.662 37.8312 464.096 36.3422 463.53C34.8829 462.965 33.6172 462.086 32.5451 460.895C31.5028 459.674 30.9816 458.036 30.9816 455.981C30.9816 454.254 31.4432 452.69 32.3664 451.29C33.3194 449.861 34.734 448.729 36.6102 447.895C38.5162 447.062 40.8391 446.645 43.579 446.645C45.4849 446.645 47.3611 446.883 49.2075 447.359C51.054 447.836 52.6472 448.521 53.9874 449.414L52.1559 453.926C50.7859 453.122 49.3565 452.511 47.8674 452.095C46.3784 451.678 44.934 451.469 43.5343 451.469C41.2411 451.469 39.5287 451.856 38.3971 452.631C37.2952 453.405 36.7442 454.432 36.7442 455.713C36.7442 456.606 37.0569 457.336 37.6823 457.902C38.3375 458.468 39.1565 458.914 40.1393 459.242C41.122 459.57 42.4622 459.942 44.1597 460.359C46.4826 460.895 48.3886 461.461 49.8776 462.056C51.3667 462.622 52.6324 463.501 53.6747 464.692C54.7468 465.883 55.2829 467.491 55.2829 469.516C55.2829 471.244 54.8064 472.807 53.8534 474.207C52.9302 475.607 51.5156 476.723 49.6096 477.557C47.7036 478.391 45.3807 478.808 42.6409 478.808ZM73.9066 447.091C76.6167 447.091 78.9694 447.538 80.9647 448.431C82.9898 449.325 84.5384 450.605 85.6106 452.273C86.6827 453.941 87.2187 455.921 87.2187 458.215C87.2187 460.478 86.6827 462.458 85.6106 464.156C84.5384 465.824 82.9898 467.104 80.9647 467.998C78.9694 468.891 76.6167 469.338 73.9066 469.338H66.8486V478.361H61.0413V447.091H73.9066ZM73.6386 464.424C76.17 464.424 78.0909 463.888 79.4012 462.816C80.7116 461.744 81.3668 460.21 81.3668 458.215C81.3668 456.219 80.7116 454.685 79.4012 453.613C78.0909 452.541 76.17 452.005 73.6386 452.005H66.8486V464.424H73.6386ZM116.47 473.492V478.361H93.018V447.091H115.845V451.961H98.8253V460.091H113.924V464.871H98.8253V473.492H116.47ZM146.397 473.492V478.361H122.944V447.091H145.771V451.961H128.752V460.091H143.851V464.871H128.752V473.492H146.397ZM152.871 447.091H166.54C169.876 447.091 172.839 447.747 175.43 449.057C178.021 450.337 180.031 452.169 181.46 454.551C182.89 456.904 183.605 459.629 183.605 462.726C183.605 465.824 182.89 468.563 181.46 470.946C180.031 473.299 178.021 475.13 175.43 476.44C172.839 477.721 169.876 478.361 166.54 478.361H152.871V447.091ZM166.272 473.447C168.565 473.447 170.575 473.016 172.303 472.152C174.06 471.259 175.4 470.008 176.323 468.4C177.276 466.762 177.753 464.871 177.753 462.726C177.753 460.582 177.276 458.706 176.323 457.098C175.4 455.46 174.06 454.209 172.303 453.345C170.575 452.452 168.565 452.005 166.272 452.005H158.678V473.447H166.272ZM210.236 478.361L203.848 469.204C203.58 469.233 203.178 469.248 202.642 469.248H195.584V478.361H189.777V447.091H202.642C205.352 447.091 207.705 447.538 209.7 448.431C211.725 449.325 213.274 450.605 214.346 452.273C215.418 453.941 215.954 455.921 215.954 458.215C215.954 460.567 215.374 462.592 214.212 464.29C213.081 465.987 211.443 467.253 209.298 468.087L216.49 478.361H210.236ZM210.102 458.215C210.102 456.219 209.447 454.685 208.137 453.613C206.827 452.541 204.906 452.005 202.374 452.005H195.584V464.469H202.374C204.906 464.469 206.827 463.932 208.137 462.86C209.447 461.758 210.102 460.21 210.102 458.215ZM235.898 478.808C231.579 478.808 228.214 477.602 225.802 475.19C223.39 472.748 222.184 469.263 222.184 464.737V447.091H227.991V464.513C227.991 470.648 230.641 473.716 235.942 473.716C241.214 473.716 243.849 470.648 243.849 464.513V447.091H249.567V464.737C249.567 469.263 248.361 472.748 245.949 475.19C243.566 477.602 240.216 478.808 235.898 478.808ZM285.486 447.091V478.361H280.706L263.463 457.187V478.361H257.7V447.091H262.48L279.723 468.266V447.091H285.486ZM321.65 447.091V478.361H316.871L299.627 457.187V478.361H293.865V447.091H298.645L315.888 468.266V447.091H321.65ZM330.029 447.091H335.837V478.361H330.029V447.091ZM372.08 447.091V478.361H367.3L350.057 457.187V478.361H344.295V447.091H349.074L366.318 468.266V447.091H372.08ZM401.812 462.369H407.307V474.832C405.699 476.113 403.822 477.096 401.678 477.781C399.534 478.466 397.33 478.808 395.067 478.808C391.88 478.808 389.006 478.123 386.445 476.753C383.884 475.353 381.874 473.433 380.415 470.991C378.955 468.549 378.226 465.794 378.226 462.726C378.226 459.659 378.955 456.904 380.415 454.462C381.874 452.02 383.884 450.114 386.445 448.744C389.036 447.344 391.94 446.645 395.156 446.645C397.777 446.645 400.159 447.076 402.304 447.94C404.448 448.804 406.25 450.069 407.709 451.737L404.046 455.311C401.663 452.928 398.789 451.737 395.424 451.737C393.22 451.737 391.255 452.199 389.528 453.122C387.83 454.045 386.49 455.341 385.507 457.008C384.554 458.676 384.078 460.582 384.078 462.726C384.078 464.811 384.554 466.687 385.507 468.355C386.49 470.023 387.83 471.333 389.528 472.286C391.255 473.239 393.205 473.716 395.379 473.716C397.822 473.716 399.966 473.179 401.812 472.107V462.369ZM433.119 451.961V461.476H448.218V466.389H433.119V478.361H427.312V447.091H450.139V451.961H433.119ZM470.014 478.808C466.827 478.808 463.953 478.123 461.392 476.753C458.831 475.353 456.821 473.433 455.361 470.991C453.902 468.519 453.172 465.764 453.172 462.726C453.172 459.689 453.902 456.949 455.361 454.507C456.821 452.035 458.831 450.114 461.392 448.744C463.953 447.344 466.827 446.645 470.014 446.645C473.2 446.645 476.074 447.344 478.635 448.744C481.196 450.114 483.206 452.02 484.666 454.462C486.125 456.904 486.855 459.659 486.855 462.726C486.855 465.794 486.125 468.549 484.666 470.991C483.206 473.433 481.196 475.353 478.635 476.753C476.074 478.123 473.2 478.808 470.014 478.808ZM470.014 473.716C472.098 473.716 473.974 473.254 475.642 472.331C477.31 471.378 478.62 470.067 479.573 468.4C480.526 466.702 481.003 464.811 481.003 462.726C481.003 460.642 480.526 458.765 479.573 457.098C478.62 455.4 477.31 454.09 475.642 453.167C473.974 452.214 472.098 451.737 470.014 451.737C467.929 451.737 466.053 452.214 464.385 453.167C462.717 454.09 461.407 455.4 460.454 457.098C459.501 458.765 459.024 460.642 459.024 462.726C459.024 464.811 459.501 466.702 460.454 468.4C461.407 470.067 462.717 471.378 464.385 472.331C466.053 473.254 467.929 473.716 470.014 473.716ZM513.47 478.361L507.082 469.204C506.814 469.233 506.412 469.248 505.876 469.248H498.817V478.361H493.01V447.091H505.876C508.586 447.091 510.938 447.538 512.934 448.431C514.959 449.325 516.507 450.605 517.579 452.273C518.652 453.941 519.188 455.921 519.188 458.215C519.188 460.567 518.607 462.592 517.445 464.29C516.314 465.987 514.676 467.253 512.532 468.087L519.724 478.361H513.47ZM513.336 458.215C513.336 456.219 512.681 454.685 511.37 453.613C510.06 452.541 508.139 452.005 505.608 452.005H498.817V464.469H505.608C508.139 464.469 510.06 463.932 511.37 462.86C512.681 461.758 513.336 460.21 513.336 458.215ZM552.504 478.808C549.347 478.808 546.488 478.123 543.927 476.753C541.396 475.353 539.401 473.433 537.941 470.991C536.512 468.549 535.797 465.794 535.797 462.726C535.797 459.659 536.527 456.904 537.986 454.462C539.445 452.02 541.441 450.114 543.972 448.744C546.533 447.344 549.392 446.645 552.549 446.645C555.11 446.645 557.448 447.091 559.562 447.985C561.677 448.878 563.464 450.174 564.923 451.871L561.17 455.4C558.907 452.958 556.123 451.737 552.817 451.737C550.673 451.737 548.752 452.214 547.054 453.167C545.357 454.09 544.031 455.385 543.078 457.053C542.126 458.721 541.649 460.612 541.649 462.726C541.649 464.841 542.126 466.732 543.078 468.4C544.031 470.067 545.357 471.378 547.054 472.331C548.752 473.254 550.673 473.716 552.817 473.716C556.123 473.716 558.907 472.48 561.17 470.008L564.923 473.581C563.464 475.279 561.662 476.574 559.518 477.468C557.403 478.361 555.065 478.808 552.504 478.808ZM598.273 447.091V478.361H592.466V464.96H576.294V478.361H570.487V447.091H576.294V460.001H592.466V447.091H598.273ZM626.933 471.125H611.298L608.215 478.361H602.229L616.301 447.091H622.019L636.135 478.361H630.06L626.933 471.125ZM625.012 466.568L619.115 452.899L613.263 466.568H625.012ZM660.571 478.361L654.183 469.204C653.915 469.233 653.513 469.248 652.977 469.248H645.919V478.361H640.112V447.091H652.977C655.687 447.091 658.04 447.538 660.035 448.431C662.06 449.325 663.609 450.605 664.681 452.273C665.753 453.941 666.289 455.921 666.289 458.215C666.289 460.567 665.708 462.592 664.547 464.29C663.415 465.987 661.777 467.253 659.633 468.087L666.825 478.361H660.571ZM660.437 458.215C660.437 456.219 659.782 454.685 658.472 453.613C657.161 452.541 655.24 452.005 652.709 452.005H645.919V464.469H652.709C655.24 464.469 657.161 463.932 658.472 462.86C659.782 461.758 660.437 460.21 660.437 458.215ZM672.786 447.091H678.594V478.361H672.786V447.091ZM693.395 452.005H683.031V447.091H709.566V452.005H699.202V478.361H693.395V452.005ZM726.979 467.327V478.361H721.171V467.417L708.887 447.091H715.096L724.254 462.324L733.501 447.091H739.219L726.979 467.327Z" fill="white"/>
<path d="M585.078 546.949V557.361H543.351V549.079L564.648 528.965C566.909 526.809 568.434 524.969 569.223 523.444C570.012 521.866 570.406 520.315 570.406 518.79C570.406 516.581 569.644 514.898 568.119 513.741C566.647 512.532 564.464 511.927 561.572 511.927C559.153 511.927 556.971 512.401 555.025 513.347C553.079 514.241 551.449 515.608 550.135 517.449L540.827 511.454C542.983 508.246 545.954 505.748 549.74 503.961C553.526 502.12 557.865 501.2 562.755 501.2C566.857 501.2 570.433 501.883 573.483 503.251C576.585 504.565 578.978 506.458 580.661 508.93C582.396 511.349 583.264 514.215 583.264 517.528C583.264 520.525 582.633 523.338 581.371 525.968C580.108 528.597 577.663 531.594 574.035 534.96L561.335 546.949H585.078ZM615.832 558.308C611.257 558.308 607.182 557.177 603.606 554.916C600.03 552.655 597.217 549.395 595.166 545.135C593.167 540.823 592.168 535.696 592.168 529.754C592.168 523.812 593.167 518.711 595.166 514.451C597.217 510.139 600.03 506.853 603.606 504.592C607.182 502.33 611.257 501.2 615.832 501.2C620.407 501.2 624.482 502.33 628.058 504.592C631.634 506.853 634.421 510.139 636.419 514.451C638.47 518.711 639.495 523.812 639.495 529.754C639.495 535.696 638.47 540.823 636.419 545.135C634.421 549.395 631.634 552.655 628.058 554.916C624.482 557.177 620.407 558.308 615.832 558.308ZM615.832 547.502C619.197 547.502 621.827 546.055 623.72 543.163C625.665 540.271 626.638 535.801 626.638 529.754C626.638 523.706 625.665 519.237 623.72 516.344C621.827 513.452 619.197 512.006 615.832 512.006C612.519 512.006 609.89 513.452 607.944 516.344C606.051 519.237 605.104 523.706 605.104 529.754C605.104 535.801 606.051 540.271 607.944 543.163C609.89 546.055 612.519 547.502 615.832 547.502ZM688.467 546.949V557.361H646.741V549.079L668.038 528.965C670.299 526.809 671.824 524.969 672.613 523.444C673.402 521.866 673.796 520.315 673.796 518.79C673.796 516.581 673.033 514.898 671.508 513.741C670.036 512.532 667.854 511.927 664.962 511.927C662.543 511.927 660.36 512.401 658.415 513.347C656.469 514.241 654.839 515.608 653.524 517.449L644.216 511.454C646.372 508.246 649.344 505.748 653.13 503.961C656.916 502.12 661.254 501.2 666.145 501.2C670.246 501.2 673.822 501.883 676.872 503.251C679.975 504.565 682.367 506.458 684.05 508.93C685.785 511.349 686.653 514.215 686.653 517.528C686.653 520.525 686.022 523.338 684.76 525.968C683.498 528.597 681.053 531.594 677.424 534.96L664.725 546.949H688.467ZM736.965 546.949V557.361H695.239V549.079L716.536 528.965C718.797 526.809 720.322 524.969 721.111 523.444C721.9 521.866 722.294 520.315 722.294 518.79C722.294 516.581 721.531 514.898 720.006 513.741C718.534 512.532 716.352 511.927 713.46 511.927C711.041 511.927 708.858 512.401 706.913 513.347C704.967 514.241 703.337 515.608 702.022 517.449L692.714 511.454C694.87 508.246 697.842 505.748 701.628 503.961C705.414 502.12 709.752 501.2 714.643 501.2C718.744 501.2 722.32 501.883 725.37 503.251C728.473 504.565 730.865 506.458 732.548 508.93C734.283 511.349 735.151 514.215 735.151 517.528C735.151 520.525 734.52 523.338 733.258 525.968C731.996 528.597 729.551 531.594 725.922 534.96L713.223 546.949H736.965Z" fill="white"/>
</g>
<defs>
<filter id="filter0_d_3007_46712" x="0.25293" y="0.419434" width="739.495" height="562.942" filterUnits="userSpaceOnUse" color-interpolation-filters="sRGB">
<feFlood flood-opacity="0" result="BackgroundImageFix"/>
<feColorMatrix in="SourceAlpha" type="matrix" values="0 0 0 0 0 0 0 0 0 0 0 0 0 0 0 0 0 0 127 0" result="hardAlpha"/>
<feOffset dx="-5" dy="5"/>
<feComposite in2="hardAlpha" operator="out"/>
<feColorMatrix type="matrix" values="0 0 0 0 1 0 0 0 0 0.188235 0 0 0 0 0 0 0 0 0.5 0"/>
<feBlend mode="normal" in2="BackgroundImageFix" result="effect1_dropShadow_3007_46712"/>
<feBlend mode="normal" in="SourceGraphic" in2="effect1_dropShadow_3007_46712" result="shape"/>
</filter>
</defs>
</svg>
