<svg width="458" height="341" viewBox="0 0 458 341" fill="none" xmlns="http://www.w3.org/2000/svg">
<g filter="url(#filter0_d_2_357)">
<path fill-rule="evenodd" clip-rule="evenodd" d="M144.746 0H268.305C272.17 0.0112784 275.875 1.54834 278.608 4.27543C281.342 7.00252 282.882 10.698 282.894 14.5547V109.623C282.882 113.479 281.342 117.175 278.608 119.902C275.875 122.629 272.17 124.166 268.305 124.177H148.85C147.036 124.177 145.296 123.459 144.014 122.179C142.731 120.899 142.011 119.164 142.011 117.354C142.011 115.545 142.731 113.809 144.014 112.53C145.296 111.25 147.036 110.532 148.85 110.532H192.619C194.433 110.532 196.172 109.813 197.455 108.533C198.737 107.254 199.458 105.518 199.458 103.709C199.458 101.899 198.737 100.164 197.455 98.8841C196.172 97.6045 194.433 96.8857 192.619 96.8857H120.126C118.312 96.8857 116.572 96.1668 115.29 94.8873C114.007 93.6077 113.287 91.8723 113.287 90.0627C113.287 88.2532 114.007 86.5177 115.29 85.2382C116.572 83.9586 118.312 83.2398 120.126 83.2398H176.205C178.019 83.2398 179.759 82.5209 181.041 81.2414C182.324 79.9618 183.044 78.2264 183.044 76.4169C183.044 74.6073 182.324 72.8719 181.041 71.5923C179.759 70.3128 178.019 69.5939 176.205 69.5939H149.533C147.538 69.5939 145.625 68.8032 144.214 67.3957C142.803 65.9882 142.011 64.0792 142.011 62.0887C142.011 60.0982 142.803 58.1892 144.214 56.7817C145.625 55.3742 147.538 54.5835 149.533 54.5835H169.367C171.18 54.5835 172.92 53.8646 174.202 52.5851C175.485 51.3055 176.206 49.5701 176.206 47.7605C176.206 45.951 175.485 44.2155 174.202 42.936C172.92 41.6565 171.18 40.9376 169.367 40.9376H131.068C129.254 40.9376 127.515 40.2188 126.232 38.9392C124.95 37.6597 124.229 35.9242 124.229 34.1147C124.229 32.3051 124.95 30.5697 126.232 29.2901C127.515 28.0106 129.254 27.2917 131.068 27.2917H199.458C201.272 27.2917 203.011 26.5729 204.294 25.2933C205.576 24.0138 206.297 22.2784 206.297 20.4688C206.297 18.6593 205.576 16.9238 204.294 15.6443C203.011 14.3647 201.272 13.6459 199.458 13.6459H144.746C142.932 13.6459 141.193 12.927 139.91 11.6475C138.628 10.3679 137.907 8.63249 137.907 6.82294C137.907 5.01338 138.628 3.27794 139.91 1.99839C141.193 0.718843 142.932 0 144.746 0ZM196.429 40.7937H186.54L200.756 84.0598H211.016L221.073 54.1087L230.857 84.0598H241.055L255.271 40.7937H246.185L235.856 72.0333L225.727 40.7937H216.888L206.435 71.8053L196.429 40.7937Z" fill="#F9FDF7"/>
<path d="M126.189 205.423L119.017 188.293L111.844 205.423H126.189Z" fill="#F9FDF7"/>
<path fill-rule="evenodd" clip-rule="evenodd" d="M36.4986 137.794H166.896C170.762 137.806 174.466 139.343 177.2 142.07C179.933 144.797 181.474 148.492 181.485 152.349V247.417C181.474 251.274 179.933 254.969 177.2 257.696C174.466 260.423 170.762 261.96 166.896 261.972H43.3376C41.5238 261.972 39.7843 261.253 38.5017 259.973C37.2191 258.694 36.4986 256.958 36.4986 255.149C36.4986 253.339 37.2191 251.604 38.5017 250.324C39.7843 249.045 41.5238 248.326 43.3376 248.326H81.6359C83.4497 248.326 85.1892 247.607 86.4718 246.327C87.7543 245.048 88.4748 243.312 88.4748 241.503C88.4748 239.693 87.7543 237.958 86.4718 236.678C85.1892 235.399 83.4497 234.68 81.6359 234.68H32.3952C30.5814 234.68 28.8419 233.961 27.5593 232.682C26.2768 231.402 25.5562 229.667 25.5562 227.857C25.5562 226.047 26.2768 224.312 27.5593 223.032C28.8419 221.753 30.5814 221.034 32.3952 221.034H72.0613C73.8751 221.034 75.6146 220.315 76.8972 219.036C78.1797 217.756 78.9003 216.021 78.9003 214.211C78.9003 212.402 78.1797 210.666 76.8972 209.387C75.6146 208.107 73.8751 207.388 72.0613 207.388H49.4926C47.4997 207.385 45.5896 206.593 44.1816 205.185C42.7736 203.778 41.9828 201.871 41.9828 199.883C41.9828 197.895 42.7736 195.988 44.1816 194.581C45.5896 193.173 47.4997 192.381 49.4926 192.378H87.1071C88.9209 192.378 90.6604 191.659 91.943 190.379C93.2255 189.1 93.9461 187.364 93.9461 185.555C93.9461 183.745 93.2255 182.01 91.943 180.73C90.6604 179.451 88.9209 178.732 87.1071 178.732H11.8783C10.9791 178.734 10.0885 178.558 9.25728 178.216C8.42611 177.874 7.67072 177.372 7.03434 176.738C6.39797 176.104 5.8931 175.351 5.54863 174.523C5.20416 173.694 5.02686 172.806 5.02686 171.909C5.02686 171.012 5.20416 170.124 5.54863 169.295C5.8931 168.466 6.39797 167.714 7.03434 167.08C7.67072 166.446 8.42611 165.944 9.25728 165.602C10.0885 165.26 10.9791 165.084 11.8783 165.086H98.0494C99.8632 165.086 101.603 164.367 102.885 163.088C104.168 161.808 104.888 160.073 104.888 158.263C104.888 156.454 104.168 154.718 102.885 153.439C101.603 152.159 99.8632 151.44 98.0494 151.44H36.4986C34.6848 151.44 32.9453 150.721 31.6627 149.442C30.3802 148.162 29.6596 146.427 29.6596 144.617C29.6596 142.808 30.3802 141.072 31.6627 139.793C32.9453 138.513 34.6848 137.794 36.4986 137.794ZM123.807 178.907H114.35L95.0657 222.173H104.831L108.791 212.716H129.242L133.202 222.173H143.153L123.807 178.907Z" fill="#F9FDF7"/>
<path fill-rule="evenodd" clip-rule="evenodd" d="M209.757 137.796H305.049C308.914 137.807 312.618 139.345 315.352 142.072C318.085 144.799 319.626 148.494 319.637 152.351V247.419C319.626 251.275 318.085 254.971 315.352 257.698C312.618 260.425 308.914 261.962 305.049 261.974H209.757C205.891 261.962 202.187 260.425 199.454 257.698C196.72 254.971 195.179 251.275 195.168 247.419V152.351C195.179 148.494 196.72 144.799 199.454 142.072C202.187 139.344 205.891 137.807 209.757 137.796ZM247.212 221.456C250.385 222.363 253.682 222.816 257.102 222.816C261.016 222.816 264.333 222.239 267.053 221.085C269.772 219.89 271.812 218.304 273.172 216.326C274.532 214.307 275.212 212.061 275.212 209.589C275.212 206.704 274.449 204.417 272.925 202.728C271.4 201.039 269.587 199.802 267.486 199.02C265.384 198.195 262.706 197.433 259.45 196.733C257.184 196.238 255.433 195.785 254.197 195.373C253.002 194.961 251.992 194.425 251.168 193.766C250.344 193.065 249.932 192.159 249.932 191.046C249.932 189.48 250.632 188.224 252.033 187.276C253.434 186.328 255.577 185.854 258.461 185.854C260.398 185.854 262.376 186.143 264.395 186.72C266.455 187.296 268.454 188.141 270.391 189.254L273.419 181.96C271.483 180.724 269.196 179.797 266.558 179.179C263.921 178.52 261.243 178.19 258.523 178.19C254.568 178.19 251.23 178.787 248.51 179.982C245.832 181.136 243.813 182.723 242.453 184.742C241.134 186.761 240.475 189.007 240.475 191.479C240.475 194.404 241.217 196.733 242.7 198.463C244.225 200.153 246.038 201.389 248.139 202.172C250.241 202.955 252.94 203.717 256.236 204.459C258.42 204.994 260.13 205.468 261.366 205.88C262.644 206.292 263.695 206.849 264.519 207.549C265.343 208.25 265.755 209.156 265.755 210.269C265.755 211.752 265.034 212.947 263.592 213.854C262.191 214.719 260.027 215.152 257.102 215.152C254.547 215.152 251.972 214.74 249.376 213.915C246.821 213.05 244.637 211.938 242.824 210.578L239.61 217.809C241.505 219.334 244.039 220.55 247.212 221.456Z" fill="#F9FDF7"/>
<path d="M402.035 212.617C399.851 213.73 397.276 214.286 394.309 214.286H384.852V186.72H394.309C397.276 186.72 399.851 187.296 402.035 188.45C404.219 189.563 405.909 191.17 407.104 193.271C408.34 195.332 408.958 197.742 408.958 200.503C408.958 203.264 408.34 205.695 407.104 207.796C405.909 209.857 404.219 211.464 402.035 212.617Z" fill="#F9FDF7"/>
<path fill-rule="evenodd" clip-rule="evenodd" d="M347.905 137.796H443.196C447.062 137.807 450.766 139.344 453.5 142.072C456.233 144.799 457.774 148.494 457.785 152.351V247.419C457.774 251.275 456.233 254.971 453.5 257.698C450.766 260.425 447.062 261.962 443.196 261.974H347.905C344.039 261.962 340.335 260.425 337.601 257.698C334.868 254.971 333.327 251.275 333.316 247.419V152.351C333.327 148.494 334.868 144.799 337.601 142.072C340.335 139.344 344.039 137.807 347.905 137.796ZM394.804 178.87H375.334V222.136H394.804C399.46 222.136 403.58 221.25 407.165 219.478C410.791 217.665 413.593 215.131 415.571 211.876C417.59 208.579 418.6 204.788 418.6 200.503C418.6 196.218 417.59 192.447 415.571 189.192C413.593 185.895 410.791 183.361 407.165 181.589C403.58 179.776 399.46 178.87 394.804 178.87Z" fill="#F9FDF7"/>
<path d="M37.9766 292.235C37.0371 292.235 36.1223 292.144 35.2323 291.963C34.3587 291.798 33.5593 291.567 32.8341 291.271C32.1254 290.974 31.5238 290.653 31.0293 290.307L32.661 287.216C33.205 287.595 33.7818 287.925 34.3917 288.205C35.018 288.469 35.6691 288.675 36.3448 288.823C37.0206 288.955 37.6964 289.021 38.3722 289.021C39.1139 289.021 39.7484 288.939 40.2759 288.774C40.8198 288.609 41.2318 288.378 41.512 288.081C41.8087 287.785 41.9571 287.422 41.9571 286.994C41.9571 286.598 41.8005 286.277 41.4873 286.029C41.1742 285.782 40.7621 285.576 40.2512 285.411C39.7567 285.23 39.2045 285.057 38.5947 284.892C37.9848 284.727 37.3667 284.538 36.7404 284.323C36.1306 284.093 35.5702 283.813 35.0592 283.483C34.5648 283.137 34.1609 282.7 33.8478 282.173C33.5346 281.645 33.378 280.986 33.378 280.195C33.378 279.008 33.6994 277.978 34.3422 277.104C35.0015 276.231 35.9245 275.555 37.1113 275.077C38.298 274.582 39.6908 274.335 41.2895 274.335C42.4598 274.335 43.5641 274.467 44.6025 274.731C45.6409 274.978 46.5309 275.341 47.2726 275.819L45.7645 278.884C45.1052 278.439 44.3717 278.11 43.5641 277.895C42.7565 277.665 41.9241 277.549 41.067 277.549C40.2924 277.549 39.6248 277.64 39.0644 277.821C38.5205 278.003 38.1002 278.258 37.8035 278.588C37.5233 278.901 37.3832 279.263 37.3832 279.675C37.3832 280.088 37.5316 280.425 37.8283 280.689C38.1414 280.936 38.5535 281.151 39.0644 281.332C39.5754 281.497 40.1358 281.662 40.7456 281.826C41.3555 281.991 41.9653 282.181 42.5752 282.395C43.185 282.609 43.7454 282.881 44.2564 283.211C44.7673 283.541 45.1794 283.961 45.4925 284.472C45.8057 284.966 45.9623 285.593 45.9623 286.351C45.9623 287.538 45.6326 288.576 44.9733 289.466C44.314 290.34 43.3828 291.024 42.1796 291.518C40.9929 291.996 39.5919 292.235 37.9766 292.235Z" fill="#F9FDF7"/>
<path d="M48.9463 291.938L52.4076 274.632H59.4043C61.5635 274.632 63.2282 275.11 64.3984 276.066C65.5852 277.005 66.1785 278.324 66.1785 280.022C66.1785 281.472 65.8407 282.741 65.1649 283.829C64.4891 284.9 63.5166 285.724 62.2475 286.301C60.9949 286.878 59.5032 287.167 57.7726 287.167H52.1603L54.2865 285.337L52.9762 291.938H48.9463ZM54.1877 285.807L52.7784 283.903H57.9456C59.2642 283.903 60.2861 283.607 61.0113 283.013C61.753 282.403 62.1239 281.521 62.1239 280.368C62.1239 279.527 61.8437 278.909 61.2833 278.513C60.7229 278.101 59.9317 277.895 58.9098 277.895H54.0393L56.1655 275.942L54.1877 285.807Z" fill="#F9FDF7"/>
<path d="M73.8096 281.604H82.1414L81.5233 284.719H73.1915L73.8096 281.604ZM72.6723 288.724H82.1167L81.4491 291.938H68.049L71.5103 274.632H84.589L83.9215 277.846H74.848L72.6723 288.724Z" fill="#F9FDF7"/>
<path d="M91.6327 281.604H99.9645L99.3464 284.719H91.0146L91.6327 281.604ZM90.4954 288.724H99.9398L99.2723 291.938H85.8721L89.3334 274.632H102.412L101.745 277.846H92.6711L90.4954 288.724Z" fill="#F9FDF7"/>
<path d="M103.695 291.938L107.157 274.632H114.401C116.181 274.632 117.705 274.929 118.974 275.522C120.26 276.099 121.241 276.931 121.916 278.019C122.592 279.09 122.93 280.368 122.93 281.851C122.93 283.384 122.666 284.769 122.139 286.005C121.628 287.241 120.895 288.304 119.939 289.194C118.983 290.068 117.845 290.743 116.527 291.221C115.208 291.699 113.749 291.938 112.151 291.938H103.695ZM108.368 288.65H112.274C113.675 288.65 114.862 288.362 115.834 287.785C116.823 287.208 117.573 286.425 118.084 285.436C118.612 284.447 118.875 283.326 118.875 282.074C118.875 281.217 118.694 280.483 118.332 279.873C117.969 279.247 117.417 278.769 116.675 278.439C115.95 278.093 115.043 277.92 113.955 277.92H110.519L108.368 288.65Z" fill="#F9FDF7"/>
<path d="M125.357 291.938L128.819 274.632H135.865C138.024 274.632 139.689 275.102 140.859 276.041C142.046 276.981 142.639 278.299 142.639 279.997C142.639 281.447 142.293 282.708 141.601 283.78C140.925 284.834 139.952 285.65 138.683 286.227C137.431 286.804 135.947 287.093 134.233 287.093H128.596L130.698 285.337L129.387 291.938H125.357ZM136.483 291.938L132.947 285.659H137.15L140.711 291.938H136.483ZM130.599 285.807L129.214 283.903H134.381C135.716 283.903 136.747 283.607 137.472 283.013C138.213 282.403 138.584 281.521 138.584 280.368C138.584 279.527 138.296 278.909 137.719 278.513C137.159 278.101 136.367 277.895 135.346 277.895H130.475L132.577 275.942L130.599 285.807Z" fill="#F9FDF7"/>
<path d="M152.933 292.235C151.251 292.235 149.85 291.905 148.73 291.246C147.609 290.587 146.818 289.672 146.356 288.502C145.911 287.315 145.845 285.922 146.158 284.323L148.087 274.632H152.117L150.188 284.249C150.04 285.024 149.999 285.7 150.065 286.277C150.131 286.854 150.295 287.332 150.559 287.711C150.839 288.09 151.218 288.37 151.696 288.551C152.174 288.733 152.735 288.823 153.378 288.823C154.185 288.823 154.886 288.667 155.479 288.353C156.073 288.04 156.567 287.546 156.963 286.87C157.358 286.194 157.663 285.321 157.877 284.249L159.806 274.632H163.737L161.784 284.497C161.273 287.051 160.275 288.98 158.792 290.282C157.309 291.584 155.356 292.235 152.933 292.235Z" fill="#F9FDF7"/>
<path d="M165.494 291.938L168.956 274.632H172.268L179.71 287.167L178.4 287.093L180.872 274.632H184.828L181.367 291.938H178.079L170.612 279.404L171.947 279.478L169.45 291.938H165.494Z" fill="#F9FDF7"/>
<path d="M186.698 291.938L190.159 274.632H193.472L200.914 287.167L199.603 287.093L202.076 274.632H206.031L202.57 291.938H199.282L191.815 279.404L193.15 279.478L190.653 291.938H186.698Z" fill="#F9FDF7"/>
<path d="M207.901 291.938L211.362 274.632H215.392L211.931 291.938H207.901Z" fill="#F9FDF7"/>
<path d="M217.249 291.938L220.711 274.632H224.024L231.465 287.167L230.155 287.093L232.627 274.632H236.583L233.122 291.938H229.834L222.367 279.404L223.702 279.478L221.205 291.938H217.249Z" fill="#F9FDF7"/>
<path d="M247.551 292.235C245.804 292.235 244.287 291.922 243.002 291.296C241.733 290.653 240.744 289.771 240.035 288.65C239.343 287.513 238.997 286.202 238.997 284.719C238.997 283.252 239.252 281.884 239.763 280.615C240.29 279.346 241.032 278.25 241.988 277.327C242.944 276.387 244.09 275.654 245.425 275.126C246.76 274.599 248.243 274.335 249.875 274.335C251.523 274.335 252.949 274.599 254.152 275.126C255.372 275.637 256.352 276.379 257.094 277.351L254.226 279.675C253.649 278.983 252.99 278.489 252.248 278.192C251.523 277.895 250.674 277.747 249.702 277.747C248.68 277.747 247.757 277.92 246.933 278.266C246.125 278.596 245.433 279.066 244.856 279.675C244.279 280.285 243.834 281.002 243.521 281.826C243.208 282.634 243.051 283.516 243.051 284.472C243.051 285.345 243.241 286.112 243.62 286.771C243.999 287.414 244.559 287.917 245.301 288.279C246.059 288.642 246.982 288.823 248.07 288.823C248.894 288.823 249.685 288.683 250.444 288.403C251.202 288.123 251.935 287.686 252.644 287.093L254.177 290.134C253.303 290.809 252.29 291.328 251.136 291.691C249.999 292.054 248.804 292.235 247.551 292.235ZM250.666 289.515L251.952 283.013H255.611L254.177 290.134L250.666 289.515Z" fill="#F9FDF7"/>
<path d="M272.613 282.42H280.945L280.277 285.634H271.97L272.613 282.42ZM271.03 291.938H267.001L270.462 274.632H283.541L282.873 277.846H273.824L271.03 291.938Z" fill="#F9FDF7"/>
<path d="M292.832 292.235C291.085 292.235 289.577 291.922 288.308 291.296C287.055 290.653 286.091 289.771 285.415 288.65C284.74 287.513 284.402 286.202 284.402 284.719C284.402 283.236 284.657 281.868 285.168 280.615C285.679 279.346 286.404 278.25 287.344 277.327C288.3 276.387 289.429 275.654 290.731 275.126C292.05 274.599 293.508 274.335 295.107 274.335C296.854 274.335 298.354 274.657 299.607 275.299C300.876 275.926 301.848 276.808 302.524 277.945C303.2 279.066 303.538 280.368 303.538 281.851C303.538 283.335 303.282 284.711 302.771 285.98C302.26 287.233 301.527 288.329 300.571 289.268C299.631 290.191 298.502 290.916 297.184 291.444C295.882 291.971 294.431 292.235 292.832 292.235ZM293.179 288.823C294.151 288.823 295.025 288.65 295.799 288.304C296.59 287.941 297.258 287.447 297.802 286.821C298.346 286.194 298.758 285.477 299.038 284.67C299.335 283.846 299.483 282.98 299.483 282.074C299.483 281.217 299.302 280.467 298.939 279.824C298.577 279.165 298.041 278.654 297.332 278.291C296.64 277.928 295.783 277.747 294.761 277.747C293.788 277.747 292.915 277.928 292.14 278.291C291.366 278.637 290.698 279.123 290.138 279.75C289.594 280.376 289.173 281.101 288.877 281.925C288.597 282.733 288.456 283.59 288.456 284.497C288.456 285.354 288.638 286.112 289 286.771C289.379 287.414 289.915 287.917 290.607 288.279C291.316 288.642 292.173 288.823 293.179 288.823Z" fill="#F9FDF7"/>
<path d="M305.954 291.938L309.416 274.632H316.462C318.621 274.632 320.286 275.102 321.456 276.041C322.643 276.981 323.236 278.299 323.236 279.997C323.236 281.447 322.89 282.708 322.198 283.78C321.522 284.834 320.55 285.65 319.28 286.227C318.028 286.804 316.544 287.093 314.83 287.093H309.193L311.295 285.337L309.984 291.938H305.954ZM317.08 291.938L313.545 285.659H317.748L321.308 291.938H317.08ZM311.196 285.807L309.811 283.903H314.979C316.314 283.903 317.344 283.607 318.069 283.013C318.811 282.403 319.182 281.521 319.182 280.368C319.182 279.527 318.893 278.909 318.316 278.513C317.756 278.101 316.965 277.895 315.943 277.895H311.072L313.174 275.942L311.196 285.807Z" fill="#F9FDF7"/>
<path d="M342.707 292.235C340.944 292.235 339.419 291.922 338.133 291.296C336.864 290.653 335.884 289.771 335.191 288.65C334.499 287.513 334.153 286.202 334.153 284.719C334.153 283.252 334.408 281.884 334.919 280.615C335.447 279.346 336.18 278.25 337.12 277.327C338.076 276.387 339.205 275.654 340.507 275.126C341.825 274.599 343.292 274.335 344.908 274.335C346.457 274.335 347.825 274.599 349.012 275.126C350.198 275.654 351.097 276.412 351.707 277.401L348.814 279.774C348.369 279.115 347.8 278.612 347.108 278.266C346.416 277.92 345.592 277.747 344.636 277.747C343.663 277.747 342.781 277.92 341.99 278.266C341.199 278.596 340.515 279.074 339.938 279.7C339.378 280.31 338.949 281.027 338.653 281.851C338.356 282.675 338.208 283.549 338.208 284.472C338.208 285.345 338.397 286.112 338.776 286.771C339.155 287.414 339.707 287.917 340.433 288.279C341.158 288.642 342.031 288.823 343.053 288.823C343.943 288.823 344.776 288.667 345.55 288.353C346.325 288.024 347.026 287.513 347.652 286.821L350.025 289.243C349.119 290.298 348.039 291.065 346.787 291.543C345.55 292.004 344.191 292.235 342.707 292.235Z" fill="#F9FDF7"/>
<path d="M368.306 274.632H372.311L368.85 291.938H364.845L368.306 274.632ZM357.007 291.938H352.977L356.439 274.632H360.469L357.007 291.938ZM366.575 284.843H358.145L358.812 281.456H367.243L366.575 284.843Z" fill="#F9FDF7"/>
<path d="M371.906 291.938L383.081 274.632H387.062L391.314 291.938H387.309L383.946 276.61H385.529L376.183 291.938H371.906ZM376.529 288.23L378.161 285.189H387.086L387.556 288.23H376.529Z" fill="#F9FDF7"/>
<path d="M394.346 291.938L397.807 274.632H404.853C407.012 274.632 408.677 275.102 409.847 276.041C411.034 276.981 411.627 278.299 411.627 279.997C411.627 281.447 411.281 282.708 410.589 283.78C409.913 284.834 408.941 285.65 407.672 286.227C406.419 286.804 404.936 287.093 403.221 287.093H397.584L399.686 285.337L398.376 291.938H394.346ZM405.471 291.938L401.936 285.659H406.139L409.699 291.938H405.471ZM399.587 285.807L398.203 283.903H403.37C404.705 283.903 405.735 283.607 406.46 283.013C407.202 282.403 407.573 281.521 407.573 280.368C407.573 279.527 407.284 278.909 406.707 278.513C406.147 278.101 405.356 277.895 404.334 277.895H399.463L401.565 275.942L399.587 285.807Z" fill="#F9FDF7"/>
<path d="M413.762 291.938L417.224 274.632H421.254L417.792 291.938H413.762Z" fill="#F9FDF7"/>
<path d="M426.696 291.938L429.49 277.895H423.952L424.619 274.632H439.7L439.033 277.895H433.519L430.701 291.938H426.696Z" fill="#F9FDF7"/>
<path d="M443.594 291.938L445.003 284.818L445.448 287.34L440.355 274.632H444.361L448.242 284.348L445.819 284.373L453.657 274.632H457.785L447.649 287.364L449.009 284.818L447.599 291.938H443.594Z" fill="#F9FDF7"/>
<path d="M346.03 334.8L346.921 330.345L360.453 319.741C361.584 318.836 362.46 318.044 363.083 317.365C363.733 316.686 364.186 316.05 364.44 315.456C364.695 314.834 364.822 314.198 364.822 313.547C364.822 312.557 364.454 311.766 363.719 311.172C362.984 310.578 361.895 310.281 360.453 310.281C359.265 310.281 358.12 310.55 357.017 311.087C355.942 311.624 354.98 312.388 354.132 313.378L349.508 310.026C350.724 308.386 352.379 307.071 354.471 306.081C356.564 305.092 358.897 304.597 361.471 304.597C363.563 304.597 365.387 304.95 366.943 305.657C368.498 306.336 369.7 307.269 370.549 308.457C371.425 309.645 371.864 311.016 371.864 312.572C371.864 313.731 371.651 314.862 371.227 315.965C370.803 317.068 370.096 318.199 369.106 319.359C368.145 320.49 366.787 321.734 365.034 323.092L353.92 331.703L352.817 329.2H369.615L368.512 334.8H346.03Z" fill="#F9FDF7"/>
<path d="M386.746 335.309C384.54 335.309 382.631 334.87 381.02 333.994C379.436 333.089 378.206 331.802 377.329 330.133C376.452 328.437 376.014 326.415 376.014 324.067C376.014 321.381 376.382 318.864 377.117 316.517C377.88 314.169 378.941 312.105 380.298 310.323C381.656 308.513 383.282 307.114 385.177 306.124C387.1 305.106 389.207 304.597 391.497 304.597C393.703 304.597 395.598 305.049 397.181 305.954C398.793 306.831 400.038 308.103 400.914 309.772C401.791 311.44 402.229 313.462 402.229 315.838C402.229 318.524 401.848 321.041 401.084 323.389C400.349 325.736 399.302 327.814 397.945 329.624C396.588 331.406 394.961 332.806 393.067 333.824C391.172 334.814 389.065 335.309 386.746 335.309ZM387.382 329.497C388.683 329.497 389.829 329.073 390.818 328.224C391.808 327.348 392.628 326.217 393.279 324.831C393.958 323.445 394.467 321.975 394.806 320.419C395.145 318.864 395.315 317.393 395.315 316.008C395.315 314.056 394.919 312.642 394.127 311.766C393.335 310.861 392.247 310.408 390.861 310.408C389.56 310.408 388.415 310.847 387.425 311.723C386.435 312.572 385.601 313.689 384.922 315.074C384.272 316.46 383.777 317.931 383.437 319.486C383.098 321.041 382.928 322.512 382.928 323.898C382.928 325.821 383.324 327.235 384.116 328.14C384.936 329.045 386.025 329.497 387.382 329.497Z" fill="#F9FDF7"/>
<path d="M403.876 334.8L404.767 330.345L418.299 319.741C419.43 318.836 420.307 318.044 420.929 317.365C421.58 316.686 422.032 316.05 422.287 315.456C422.541 314.834 422.668 314.198 422.668 313.547C422.668 312.557 422.301 311.766 421.565 311.172C420.83 310.578 419.741 310.281 418.299 310.281C417.111 310.281 415.966 310.55 414.863 311.087C413.789 311.624 412.827 312.388 411.979 313.378L407.355 310.026C408.571 308.386 410.225 307.071 412.318 306.081C414.411 305.092 416.744 304.597 419.317 304.597C421.41 304.597 423.234 304.95 424.789 305.657C426.345 306.336 427.547 307.269 428.395 308.457C429.272 309.645 429.71 311.016 429.71 312.572C429.71 313.731 429.498 314.862 429.074 315.965C428.65 317.068 427.943 318.199 426.953 319.359C425.991 320.49 424.634 321.734 422.881 323.092L411.767 331.703L410.664 329.2H427.462L426.359 334.8H403.876Z" fill="#F9FDF7"/>
<path d="M441.326 335.309C439.149 335.309 437.113 335.012 435.218 334.418C433.323 333.824 431.74 332.975 430.467 331.873L433.776 326.825C434.737 327.673 435.911 328.338 437.297 328.818C438.711 329.299 440.209 329.539 441.793 329.539C443.151 329.539 444.296 329.37 445.229 329.03C446.191 328.691 446.912 328.196 447.392 327.546C447.902 326.895 448.156 326.132 448.156 325.255C448.156 324.18 447.746 323.389 446.926 322.88C446.134 322.342 444.918 322.074 443.278 322.074H440.139L441.03 317.535L451.041 308.16L451.507 310.62H435.854L437 305.106H457.785L456.937 309.56L446.926 318.935L443.702 316.983H445.229C447.293 316.983 449.061 317.308 450.532 317.959C452.002 318.581 453.133 319.486 453.925 320.674C454.717 321.833 455.113 323.219 455.113 324.831C455.113 326.839 454.519 328.635 453.331 330.218C452.172 331.802 450.546 333.046 448.453 333.951C446.389 334.856 444.013 335.309 441.326 335.309Z" fill="#F9FDF7"/>
</g>
<defs>
<filter id="filter0_d_2_357" x="0.0268555" y="0" width="457.759" height="340.309" filterUnits="userSpaceOnUse" color-interpolation-filters="sRGB">
<feFlood flood-opacity="0" result="BackgroundImageFix"/>
<feColorMatrix in="SourceAlpha" type="matrix" values="0 0 0 0 0 0 0 0 0 0 0 0 0 0 0 0 0 0 127 0" result="hardAlpha"/>
<feOffset dx="-5" dy="5"/>
<feComposite in2="hardAlpha" operator="out"/>
<feColorMatrix type="matrix" values="0 0 0 0 0.121569 0 0 0 0 0 0 0 0 0 0.317647 0 0 0 0.5 0"/>
<feBlend mode="normal" in2="BackgroundImageFix" result="effect1_dropShadow_2_357"/>
<feBlend mode="normal" in="SourceGraphic" in2="effect1_dropShadow_2_357" result="shape"/>
</filter>
</defs>
</svg>
