<svg id="wasd-keys" viewBox="0 0 740 546" fill="none" xmlns="http://www.w3.org/2000/svg">
<g filter="url(#filter0_d_3007_46712)">
<path fill-rule="evenodd" clip-rule="evenodd" d="M432.339 0.419434H232.434C229.499 0.419434 226.685 1.58245 224.61 3.65262C222.535 5.7228 221.369 8.53056 221.369 11.4582C221.369 14.3859 222.535 17.1937 224.61 19.2638C226.685 21.334 229.499 22.497 232.434 22.497H320.952C323.887 22.497 326.701 23.66 328.776 25.7302C330.851 27.8004 332.017 30.6082 332.017 33.5358C332.017 36.4635 330.851 39.2713 328.776 41.3414C326.701 43.4116 323.887 44.5746 320.952 44.5746H210.305C207.37 44.5746 204.556 45.7376 202.481 47.8078C200.406 49.878 199.24 52.6858 199.24 55.6134C199.24 58.5411 200.406 61.3489 202.481 63.419C204.556 65.4892 207.37 66.6522 210.305 66.6522H272.267C275.202 66.6522 278.016 67.8152 280.091 69.8854C282.166 71.9556 283.332 74.7633 283.332 77.691C283.332 80.6187 282.166 83.4265 280.091 85.4966C278.016 87.5668 275.202 88.7298 272.267 88.7298H240.179C236.951 88.7298 233.856 90.0091 231.573 92.2863C229.29 94.5635 228.008 97.652 228.008 100.872C228.008 104.093 229.29 107.181 231.573 109.459C233.856 111.736 236.951 113.015 240.179 113.015H283.332C286.266 113.015 289.081 114.178 291.156 116.248C293.231 118.319 294.397 121.126 294.397 124.054C294.397 126.982 293.231 129.789 291.156 131.86C289.081 133.93 286.266 135.093 283.332 135.093H192.601C189.666 135.093 186.852 136.256 184.777 138.326C182.702 140.396 181.536 143.204 181.536 146.132C181.536 149.059 182.702 151.867 184.777 153.937C186.852 156.007 189.666 157.17 192.601 157.17H309.887C312.822 157.17 315.636 158.333 317.711 160.404C319.786 162.474 320.952 165.281 320.952 168.209C320.952 171.137 319.786 173.945 317.711 176.015C315.636 178.085 312.822 179.248 309.887 179.248H239.073C236.138 179.248 233.324 180.411 231.249 182.481C229.174 184.551 228.008 187.359 228.008 190.287C228.008 193.214 229.174 196.022 231.249 198.092C233.324 200.163 236.138 201.326 239.073 201.326H432.339C438.593 201.307 444.586 198.82 449.009 194.408C453.431 189.996 455.924 184.017 455.942 177.778V23.9674C455.924 17.7277 453.431 11.7488 449.009 7.33663C444.586 2.92448 438.593 0.437681 432.339 0.419434ZM370.369 133.402H386.722L410.499 63.3384H394.146L379.096 116.787L363.747 63.3384H348.196L333.047 116.787L317.797 63.3384H300.742L324.419 133.402H340.672L355.62 82.8568L370.369 133.402Z" fill="white"/>
<path d="M268.581 223.403H57.6114C54.6768 223.403 51.8624 224.566 49.7874 226.636C47.7124 228.706 46.5466 231.514 46.5466 234.442C46.5466 237.37 47.7124 240.177 49.7874 242.247C51.8624 244.318 54.6768 245.481 57.6114 245.481H157.194C160.129 245.481 162.943 246.644 165.018 248.714C167.093 250.784 168.259 253.592 168.259 256.519C168.259 259.447 167.093 262.255 165.018 264.325C162.943 266.395 160.129 267.558 157.194 267.558H17.7782C16.3235 267.556 14.8825 267.839 13.5378 268.393C12.193 268.946 10.9708 269.759 9.94126 270.784C8.91167 271.81 8.09485 273.027 7.53754 274.368C6.98022 275.709 6.69336 277.146 6.69336 278.597C6.69336 280.048 6.98022 281.485 7.53754 282.826C8.09485 284.167 8.91167 285.384 9.94126 286.41C10.9708 287.435 12.193 288.248 13.5378 288.801C14.8825 289.355 16.3235 289.638 17.7782 289.636H139.491C142.425 289.636 145.24 290.799 147.315 292.869C149.39 294.939 150.555 297.747 150.555 300.675C150.555 303.602 149.39 306.41 147.315 308.48C145.24 310.55 142.425 311.713 139.491 311.713H78.6344C75.41 311.719 72.3196 313.001 70.0416 315.277C67.7637 317.554 66.4842 320.639 66.4842 323.856C66.4842 327.073 67.7637 330.158 70.0416 332.435C72.3196 334.711 75.41 335.993 78.6344 335.999H115.148C118.083 335.999 120.897 337.162 122.972 339.232C125.047 341.302 126.213 344.11 126.213 347.038C126.213 349.965 125.047 352.773 122.972 354.843C120.897 356.913 118.083 358.076 115.148 358.076H50.9725C48.038 358.076 45.2236 359.239 43.1485 361.31C41.0735 363.38 39.9077 366.188 39.9077 369.115C39.9077 372.043 41.0735 374.851 43.1485 376.921C45.2236 378.991 48.038 380.154 50.9725 380.154H130.639C133.573 380.154 136.388 381.317 138.463 383.387C140.538 385.457 141.704 388.265 141.704 391.193C141.704 394.12 140.538 396.928 138.463 398.998C136.388 401.069 133.573 402.232 130.639 402.232H68.6761C65.7416 402.232 62.9272 403.395 60.8522 405.465C58.7771 407.535 57.6114 410.343 57.6114 413.27C57.6114 416.198 58.7771 419.006 60.8522 421.076C62.9272 423.146 65.7416 424.309 68.6761 424.309H268.581C274.835 424.291 280.828 421.804 285.251 417.392C289.673 412.98 292.166 407.001 292.184 400.761V246.951C292.166 240.711 289.673 234.732 285.251 230.32C280.828 225.908 274.835 223.421 268.581 223.403ZM213.383 356.386L207.865 342.773H175.359L169.842 356.386H153.488L183.987 286.322H200.341L230.338 356.386H213.383Z" fill="white"/>
<path d="M202.757 330.066H180.586L191.721 302.84L202.757 330.066Z" fill="white"/>
<path d="M492.098 223.406H337.926C331.671 223.424 325.678 225.911 321.256 230.323C316.833 234.736 314.341 240.715 314.322 246.954V400.764C314.341 407.004 316.833 412.983 321.256 417.395C325.678 421.807 331.671 424.294 337.926 424.312H492.097C498.352 424.294 504.345 421.807 508.767 417.395C513.19 412.983 515.682 407.004 515.701 400.764V246.954C515.682 240.715 513.19 234.736 508.767 230.323C504.345 225.911 498.352 223.425 492.098 223.406ZM440.361 347.431C437.866 350.758 434.474 353.31 430.58 354.787C426.07 356.521 421.267 357.37 416.434 357.29C410.714 357.285 405.041 356.268 399.677 354.287C394.465 352.443 389.637 349.661 385.432 346.079L391.752 333.169C395.363 336.413 399.503 339.019 403.992 340.874C407.971 342.668 412.268 343.655 416.632 343.777C419.312 343.926 421.977 343.3 424.309 341.976C425.076 341.455 425.719 340.77 426.191 339.972C426.663 339.174 426.953 338.282 427.039 337.359C427.125 336.436 427.006 335.506 426.69 334.634C426.375 333.763 425.87 332.972 425.212 332.317C423.841 331.07 422.239 330.101 420.497 329.465C418.59 328.732 415.965 327.898 412.622 326.964C408.603 325.903 404.663 324.565 400.831 322.958C397.746 321.594 395.043 319.497 392.957 316.852C390.618 313.709 389.448 309.852 389.646 305.943C389.568 301.987 390.764 298.111 393.056 294.882C395.478 291.598 398.783 289.066 402.588 287.578C407.119 285.791 411.962 284.924 416.834 285.025C421.66 285.026 426.461 285.734 431.082 287.125C435.473 288.397 439.661 290.284 443.521 292.731L437.401 305.844C433.794 303.643 429.937 301.878 425.912 300.587C422.571 299.415 419.07 298.757 415.53 298.638C413.259 298.523 411 299.043 409.008 300.139C408.245 300.586 407.618 301.232 407.194 302.008C406.77 302.783 406.565 303.659 406.601 304.541C406.579 305.715 406.892 306.871 407.506 307.873C408.119 308.875 409.006 309.682 410.063 310.199C413.469 311.926 417.051 313.285 420.747 314.252C424.801 315.382 428.773 316.786 432.635 318.456C435.771 319.876 438.509 322.041 440.612 324.76C442.95 327.98 444.118 331.899 443.923 335.87C444.026 340.008 442.776 344.066 440.361 347.431ZM648.318 302.39C645.034 300.529 641.311 299.579 637.534 299.639H623.889V343.078H638.234C641.916 343.13 645.541 342.178 648.72 340.325C651.816 338.503 654.336 335.85 655.994 332.669C657.778 329.204 658.674 325.352 658.601 321.457C658.664 317.514 657.715 313.621 655.843 310.147C654.103 306.916 651.498 304.23 648.318 302.39Z" fill="white"/>
<path d="M715.606 223.406H561.434C555.18 223.424 549.187 225.911 544.765 230.323C540.342 234.736 537.849 240.715 537.831 246.954V400.764C537.849 407.004 540.342 412.983 544.765 417.395C549.187 421.807 555.18 424.294 561.434 424.312H715.606C721.861 424.294 727.854 421.807 732.276 417.395C736.699 412.983 739.191 407.004 739.21 400.764V246.954C739.191 240.715 736.699 234.736 732.276 230.323C727.854 225.911 721.861 223.424 715.606 223.406ZM669.99 339.525C666.816 344.826 662.208 349.127 656.695 351.935C650.67 354.985 643.988 356.514 637.233 356.389H608.036V286.325H637.833C644.492 286.208 651.076 287.739 656.998 290.78C662.454 293.594 666.994 297.899 670.09 303.192C673.257 308.717 674.869 314.994 674.753 321.358C674.866 327.735 673.218 334.02 669.99 339.525Z" fill="white"/>
<path d="M42.6409 469.917C40.2286 469.917 37.8908 469.575 35.6274 468.89C33.3939 468.205 31.6219 467.297 30.3115 466.165L32.3218 461.653C33.6023 462.666 35.1658 463.5 37.0123 464.155C38.8885 464.78 40.7647 465.093 42.6409 465.093C44.9638 465.093 46.6911 464.721 47.8227 463.976C48.9842 463.232 49.5649 462.249 49.5649 461.028C49.5649 460.134 49.2373 459.405 48.5821 458.839C47.9567 458.243 47.1527 457.782 46.1699 457.454C45.1871 457.127 43.847 456.754 42.1495 456.337C39.767 455.771 37.8312 455.206 36.3422 454.64C34.8829 454.074 33.6172 453.195 32.5451 452.004C31.5028 450.783 30.9816 449.145 30.9816 447.09C30.9816 445.363 31.4432 443.8 32.3664 442.4C33.3194 440.97 34.734 439.839 36.6102 439.005C38.5162 438.171 40.8391 437.754 43.579 437.754C45.4849 437.754 47.3611 437.992 49.2075 438.469C51.054 438.945 52.6472 439.63 53.9874 440.524L52.1559 445.035C50.7859 444.231 49.3565 443.621 47.8674 443.204C46.3784 442.787 44.934 442.579 43.5343 442.579C41.2411 442.579 39.5287 442.966 38.3971 443.74C37.2952 444.514 36.7442 445.542 36.7442 446.822C36.7442 447.716 37.0569 448.445 37.6823 449.011C38.3375 449.577 39.1565 450.024 40.1393 450.351C41.122 450.679 42.4622 451.051 44.1597 451.468C46.4826 452.004 48.3886 452.57 49.8776 453.166C51.3667 453.731 52.6324 454.61 53.6747 455.801C54.7468 456.992 55.2829 458.601 55.2829 460.626C55.2829 462.353 54.8064 463.917 53.8534 465.316C52.9302 466.716 51.5156 467.833 49.6096 468.667C47.7036 469.5 45.3807 469.917 42.6409 469.917ZM73.9066 438.201C76.6167 438.201 78.9694 438.647 80.9647 439.541C82.9898 440.434 84.5384 441.715 85.6106 443.383C86.6827 445.05 87.2187 447.031 87.2187 449.324C87.2187 451.587 86.6827 453.568 85.6106 455.265C84.5384 456.933 82.9898 458.214 80.9647 459.107C78.9694 460 76.6167 460.447 73.9066 460.447H66.8486V469.471H61.0413V438.201H73.9066ZM73.6386 455.533C76.17 455.533 78.0909 454.997 79.4012 453.925C80.7116 452.853 81.3668 451.319 81.3668 449.324C81.3668 447.329 80.7116 445.795 79.4012 444.723C78.0909 443.651 76.17 443.115 73.6386 443.115H66.8486V455.533H73.6386ZM116.47 464.602V469.471H93.018V438.201H115.845V443.07H98.8253V451.2H113.924V455.98H98.8253V464.602H116.47ZM146.397 464.602V469.471H122.944V438.201H145.771V443.07H128.752V451.2H143.851V455.98H128.752V464.602H146.397ZM152.871 438.201H166.54C169.876 438.201 172.839 438.856 175.43 440.166C178.021 441.447 180.031 443.278 181.46 445.661C182.89 448.014 183.605 450.738 183.605 453.836C183.605 456.933 182.89 459.673 181.46 462.055C180.031 464.408 178.021 466.239 175.43 467.55C172.839 468.83 169.876 469.471 166.54 469.471H152.871V438.201ZM166.272 464.557C168.565 464.557 170.575 464.125 172.303 463.261C174.06 462.368 175.4 461.117 176.323 459.509C177.276 457.871 177.753 455.98 177.753 453.836C177.753 451.691 177.276 449.815 176.323 448.207C175.4 446.569 174.06 445.318 172.303 444.455C170.575 443.561 168.565 443.115 166.272 443.115H158.678V464.557H166.272ZM210.236 469.471L203.848 460.313C203.58 460.343 203.178 460.358 202.642 460.358H195.584V469.471H189.777V438.201H202.642C205.352 438.201 207.705 438.647 209.7 439.541C211.725 440.434 213.274 441.715 214.346 443.383C215.418 445.05 215.954 447.031 215.954 449.324C215.954 451.677 215.374 453.702 214.212 455.399C213.081 457.097 211.443 458.362 209.298 459.196L216.49 469.471H210.236ZM210.102 449.324C210.102 447.329 209.447 445.795 208.137 444.723C206.827 443.651 204.906 443.115 202.374 443.115H195.584V455.578H202.374C204.906 455.578 206.827 455.042 208.137 453.97C209.447 452.868 210.102 451.319 210.102 449.324ZM235.898 469.917C231.579 469.917 228.214 468.711 225.802 466.299C223.39 463.857 222.184 460.373 222.184 455.846V438.201H227.991V455.623C227.991 461.757 230.641 464.825 235.942 464.825C241.214 464.825 243.849 461.757 243.849 455.623V438.201H249.567V455.846C249.567 460.373 248.361 463.857 245.949 466.299C243.566 468.711 240.216 469.917 235.898 469.917ZM285.486 438.201V469.471H280.706L263.463 448.296V469.471H257.7V438.201H262.48L279.723 459.375V438.201H285.486ZM321.65 438.201V469.471H316.871L299.627 448.296V469.471H293.865V438.201H298.645L315.888 459.375V438.201H321.65ZM330.029 438.201H335.837V469.471H330.029V438.201ZM372.08 438.201V469.471H367.3L350.057 448.296V469.471H344.295V438.201H349.074L366.318 459.375V438.201H372.08ZM401.812 453.478H407.307V465.942C405.699 467.222 403.822 468.205 401.678 468.89C399.534 469.575 397.33 469.917 395.067 469.917C391.88 469.917 389.006 469.232 386.445 467.863C383.884 466.463 381.874 464.542 380.415 462.1C378.955 459.658 378.226 456.903 378.226 453.836C378.226 450.768 378.955 448.014 380.415 445.572C381.874 443.129 383.884 441.223 386.445 439.854C389.036 438.454 391.94 437.754 395.156 437.754C397.777 437.754 400.159 438.186 402.304 439.049C404.448 439.913 406.25 441.179 407.709 442.847L404.046 446.42C401.663 444.038 398.789 442.847 395.424 442.847C393.22 442.847 391.255 443.308 389.528 444.231C387.83 445.155 386.49 446.45 385.507 448.118C384.554 449.786 384.078 451.691 384.078 453.836C384.078 455.92 384.554 457.797 385.507 459.464C386.49 461.132 387.83 462.442 389.528 463.395C391.255 464.348 393.205 464.825 395.379 464.825C397.822 464.825 399.966 464.289 401.812 463.217V453.478ZM433.119 443.07V452.585H448.218V457.499H433.119V469.471H427.312V438.201H450.139V443.07H433.119ZM470.014 469.917C466.827 469.917 463.953 469.232 461.392 467.863C458.831 466.463 456.821 464.542 455.361 462.1C453.902 459.628 453.172 456.873 453.172 453.836C453.172 450.798 453.902 448.058 455.361 445.616C456.821 443.144 458.831 441.223 461.392 439.854C463.953 438.454 466.827 437.754 470.014 437.754C473.2 437.754 476.074 438.454 478.635 439.854C481.196 441.223 483.206 443.129 484.666 445.572C486.125 448.014 486.855 450.768 486.855 453.836C486.855 456.903 486.125 459.658 484.666 462.1C483.206 464.542 481.196 466.463 478.635 467.863C476.074 469.232 473.2 469.917 470.014 469.917ZM470.014 464.825C472.098 464.825 473.974 464.363 475.642 463.44C477.31 462.487 478.62 461.177 479.573 459.509C480.526 457.811 481.003 455.92 481.003 453.836C481.003 451.751 480.526 449.875 479.573 448.207C478.62 446.51 477.31 445.199 475.642 444.276C473.974 443.323 472.098 442.847 470.014 442.847C467.929 442.847 466.053 443.323 464.385 444.276C462.717 445.199 461.407 446.51 460.454 448.207C459.501 449.875 459.024 451.751 459.024 453.836C459.024 455.92 459.501 457.811 460.454 459.509C461.407 461.177 462.717 462.487 464.385 463.44C466.053 464.363 467.929 464.825 470.014 464.825ZM513.47 469.471L507.082 460.313C506.814 460.343 506.412 460.358 505.876 460.358H498.817V469.471H493.01V438.201H505.876C508.586 438.201 510.938 438.647 512.934 439.541C514.959 440.434 516.507 441.715 517.579 443.383C518.652 445.05 519.188 447.031 519.188 449.324C519.188 451.677 518.607 453.702 517.445 455.399C516.314 457.097 514.676 458.362 512.532 459.196L519.724 469.471H513.47ZM513.336 449.324C513.336 447.329 512.681 445.795 511.37 444.723C510.06 443.651 508.139 443.115 505.608 443.115H498.817V455.578H505.608C508.139 455.578 510.06 455.042 511.37 453.97C512.681 452.868 513.336 451.319 513.336 449.324ZM552.504 469.917C549.347 469.917 546.488 469.232 543.927 467.863C541.396 466.463 539.401 464.542 537.941 462.1C536.512 459.658 535.797 456.903 535.797 453.836C535.797 450.768 536.527 448.014 537.986 445.572C539.445 443.129 541.441 441.223 543.972 439.854C546.533 438.454 549.392 437.754 552.549 437.754C555.11 437.754 557.448 438.201 559.562 439.094C561.677 439.988 563.464 441.283 564.923 442.981L561.17 446.51C558.907 444.068 556.123 442.847 552.817 442.847C550.673 442.847 548.752 443.323 547.054 444.276C545.357 445.199 544.031 446.495 543.078 448.162C542.126 449.83 541.649 451.721 541.649 453.836C541.649 455.95 542.126 457.841 543.078 459.509C544.031 461.177 545.357 462.487 547.054 463.44C548.752 464.363 550.673 464.825 552.817 464.825C556.123 464.825 558.907 463.589 561.17 461.117L564.923 464.691C563.464 466.388 561.662 467.684 559.518 468.577C557.403 469.471 555.065 469.917 552.504 469.917ZM598.273 438.201V469.471H592.466V456.069H576.294V469.471H570.487V438.201H576.294V451.111H592.466V438.201H598.273ZM626.933 462.234H611.298L608.215 469.471H602.229L616.301 438.201H622.019L636.135 469.471H630.06L626.933 462.234ZM625.012 457.677L619.115 444.008L613.263 457.677H625.012ZM660.571 469.471L654.183 460.313C653.915 460.343 653.513 460.358 652.977 460.358H645.919V469.471H640.112V438.201H652.977C655.687 438.201 658.04 438.647 660.035 439.541C662.06 440.434 663.609 441.715 664.681 443.383C665.753 445.05 666.289 447.031 666.289 449.324C666.289 451.677 665.708 453.702 664.547 455.399C663.415 457.097 661.777 458.362 659.633 459.196L666.825 469.471H660.571ZM660.437 449.324C660.437 447.329 659.782 445.795 658.472 444.723C657.161 443.651 655.24 443.115 652.709 443.115H645.919V455.578H652.709C655.24 455.578 657.161 455.042 658.472 453.97C659.782 452.868 660.437 451.319 660.437 449.324ZM672.786 438.201H678.594V469.471H672.786V438.201ZM693.395 443.115H683.031V438.201H709.566V443.115H699.202V469.471H693.395V443.115ZM726.979 458.437V469.471H721.171V458.526L708.887 438.201H715.096L724.254 453.434L733.501 438.201H739.219L726.979 458.437Z" fill="white"/>
<path d="M585.078 529.168V539.58H543.351V531.298L564.648 511.184C566.909 509.028 568.434 507.188 569.223 505.663C570.012 504.085 570.406 502.534 570.406 501.009C570.406 498.8 569.644 497.117 568.119 495.96C566.647 494.751 564.464 494.146 561.572 494.146C559.153 494.146 556.971 494.62 555.025 495.566C553.079 496.46 551.449 497.827 550.135 499.668L540.827 493.673C542.983 490.465 545.954 487.967 549.74 486.18C553.526 484.339 557.865 483.419 562.755 483.419C566.857 483.419 570.433 484.102 573.483 485.47C576.585 486.784 578.978 488.677 580.661 491.149C582.396 493.568 583.264 496.434 583.264 499.747C583.264 502.744 582.633 505.557 581.371 508.187C580.108 510.816 577.663 513.813 574.035 517.179L561.335 529.168H585.078ZM615.832 540.527C611.257 540.527 607.182 539.396 603.606 537.135C600.03 534.874 597.217 531.614 595.166 527.354C593.167 523.042 592.168 517.915 592.168 511.973C592.168 506.031 593.167 500.93 595.166 496.67C597.217 492.358 600.03 489.072 603.606 486.811C607.182 484.549 611.257 483.419 615.832 483.419C620.407 483.419 624.482 484.549 628.058 486.811C631.634 489.072 634.421 492.358 636.419 496.67C638.47 500.93 639.495 506.031 639.495 511.973C639.495 517.915 638.47 523.042 636.419 527.354C634.421 531.614 631.634 534.874 628.058 537.135C624.482 539.396 620.407 540.527 615.832 540.527ZM615.832 529.72C619.197 529.72 621.827 528.274 623.72 525.382C625.665 522.49 626.638 518.02 626.638 511.973C626.638 505.925 625.665 501.456 623.72 498.563C621.827 495.671 619.197 494.225 615.832 494.225C612.519 494.225 609.89 495.671 607.944 498.563C606.051 501.456 605.104 505.925 605.104 511.973C605.104 518.02 606.051 522.49 607.944 525.382C609.89 528.274 612.519 529.72 615.832 529.72ZM688.467 529.168V539.58H646.741V531.298L668.038 511.184C670.299 509.028 671.824 507.188 672.613 505.663C673.402 504.085 673.796 502.534 673.796 501.009C673.796 498.8 673.033 497.117 671.508 495.96C670.036 494.751 667.854 494.146 664.962 494.146C662.543 494.146 660.36 494.62 658.415 495.566C656.469 496.46 654.839 497.827 653.524 499.668L644.216 493.673C646.372 490.465 649.344 487.967 653.13 486.18C656.916 484.339 661.254 483.419 666.145 483.419C670.246 483.419 673.822 484.102 676.872 485.47C679.975 486.784 682.367 488.677 684.05 491.149C685.785 493.568 686.653 496.434 686.653 499.747C686.653 502.744 686.022 505.557 684.76 508.187C683.498 510.816 681.053 513.813 677.424 517.179L664.725 529.168H688.467ZM736.965 529.168V539.58H695.239V531.298L716.536 511.184C718.797 509.028 720.322 507.188 721.111 505.663C721.9 504.085 722.294 502.534 722.294 501.009C722.294 498.8 721.531 497.117 720.006 495.96C718.534 494.751 716.352 494.146 713.46 494.146C711.041 494.146 708.858 494.62 706.913 495.566C704.967 496.46 703.337 497.827 702.022 499.668L692.714 493.673C694.87 490.465 697.842 487.967 701.628 486.18C705.414 484.339 709.752 483.419 714.643 483.419C718.744 483.419 722.32 484.102 725.37 485.47C728.473 486.784 730.865 488.677 732.548 491.149C734.283 493.568 735.151 496.434 735.151 499.747C735.151 502.744 734.52 505.557 733.258 508.187C731.996 510.816 729.551 513.813 725.922 517.179L713.223 529.168H736.965Z" fill="white"/>
</g>
<defs>
<filter id="filter0_d_3007_46712" x="0.25293" y="0.419434" width="739.495" height="545.161" filterUnits="userSpaceOnUse" color-interpolation-filters="sRGB">
<feFlood flood-opacity="0" result="BackgroundImageFix"/>
<feColorMatrix in="SourceAlpha" type="matrix" values="0 0 0 0 0 0 0 0 0 0 0 0 0 0 0 0 0 0 127 0" result="hardAlpha"/>
<feOffset dx="-5" dy="5"/>
<feComposite in2="hardAlpha" operator="out"/>
<feColorMatrix type="matrix" values="0 0 0 0 1 0 0 0 0 0.188235 0 0 0 0 0 0 0 0 0.5 0"/>
<feBlend mode="normal" in2="BackgroundImageFix" result="effect1_dropShadow_3007_46712"/>
<feBlend mode="normal" in="SourceGraphic" in2="effect1_dropShadow_3007_46712" result="shape"/>
</filter>
</defs>
</svg>
